<?xml version="1.0" encoding="utf-8"?>
<!-- Generator: Adobe Illustrator 26.5.0, SVG Export Plug-In . SVG Version: 6.00 Build 0)  -->
<svg version="1.1" id="Karten" xmlns="http://www.w3.org/2000/svg" xmlns:xlink="http://www.w3.org/1999/xlink" x="0px" y="0px"
	 viewBox="0 0 594.9 877" style="enable-background:new 0 0 594.9 877;" xml:space="preserve">
<style type="text/css">
	.st0{fill:#555555;stroke:#FFFFFF;}
	.st1{fill:#555555;}
	.st2{font-family:'ArialMT';}
	.st3{font-size:26px;}
</style>
<path id="thu-karte" class="st0" d="M313.8,351.7l1.8-0.4l3.4,0.3l2,0.2l2.9,0.7c0.8,0.6,1.6,1.4,2.4,2.1l1.2-0.6
	c-1,1.2-1.6,2.4-2.1,3.9l1.2,2.9c1.3,1.9,2.5,3.9,3.8,5.8l1,1.3c0,1.7-0.2,3.3-0.3,5c0.7,0.4,1.4,0.5,2,1c1.3,0.3,1.8-0.1,2.9-0.5
	l6.8,2c2.1,0.3,3.7,0.3,5.8,0.3l2.4-0.1l1.6-0.2l1.5,0.4l5,1.7v3.5v0.4c1.2,0.5,2.7,0.2,1,1.1v0.1v0.2c0.8,0.4,1,0.5,1,1.3l1,0.1
	v0.2l1,1.2l1,0.5c-1.4,2-2.3,4.8-4,6.1c0,0.4-0.7,0.3-1,0.3c-0.3-0.3-0.7-0.5-1-0.8v0.2v0.5l-1,1c-0.2,1.2,1.1,1.5,2,2
	c0.8,0.2,1.3,0,2-0.4l1,0.4l2,1.6c0.9,1.8,1.2,2.6,0,4c-0.1,0.7-0.2,0.5-1,0.7c0.6,1.6,0.4,3.6,2,4.3v0.2c2.6,0.1,4.4,0.3,4.8-2
	l1.2,0.1l6,1l1,1c1.1,0.9,1,1.9,1,3.1l5,1.5l2,0.5c1.4-0.3,2.7-0.7,4-1.1l1,0.3l4,2.2l2,1.5v0.3l2,3c1,0.3,1,0.7,1,1.6l1-0.4v-0.1
	l3-0.5h1l3,1.2l1,0.5l-0.3-1.2c0.4-0.5,1.1-0.2,1.3-0.7v0.1c1.1,0.9,2,1.4,2,2.8l1,1.1c0-0.7,0.6-1.1,1-1.5l3-6.8v-2v-0.2l-2-1
	l-0.2-2.1l2-2.6l3.2-0.9l-0.4-0.3l7.4,2.6l3,1.1l1,0.2v0.3v1v0.7v1.2v1.8l3,1.8l2,1l2,0.6l1,1.7v2.3l1,0.2l0.6,1l-0.1,0.8
	c-8.6,10-18.5,9.7-26.5,18v1.1v0.5v0.3l2,4.4l1,0.8l3,0.8v1.3l-1,1.4v0.1l-2,2.1l-2,0.5l-4,1.5l-3,1.4l-1,0.3v0.1v1l2,0.5v-0.3h1
	v0.1v0.4v0.5v0.1v0.1l-1,0.1l-1-0.1l-1,0.7l-2-0.3l-4,0.2v-2.8v-3.1l-1-0.8v0.1v0.1l-2,1.3v0.8l-2,2.3v0.1l-1,0.3v0.2
	c-1.3,1.6-2,4-4,4.8v0.1l1,1.8v0.5h1c1.2,0,1.9-0.5,2.2,0.6l2.7,1.7c1,1.8-3.9,4-4.9,5.4l1.4,0.8c0.9,1.5-19.4,6.8-19.4,4.5l-1-0.5
	v-0.1v-0.2l-2,0.3v0.1v0.3v0.7v0.3l-1,0.4l-2,0.6v-0.3l-2-1.9l-1-1.2v-2.2l-2,0.2l-2-1.1v-0.2v-0.6v-2.1v-1.6l1-0.7v-0.1v-0.7v-0.1
	v-1l-1-0.4v-0.3l-3-0.6l-2,0.2v0.1l-1,1.1v1l-3,1.6l-1,0.7v-0.1l-1-0.2v0.2v0.2v0.6v0.2v2.2v0.5l1,0.1v1l1,7.5v0.1l-2,6.9l-3,0.5
	l-1,1.9v0.1h-0.6l-2.2-2.1l-0.7-1l-0.1-0.1v-0.5l0.1-0.6l0.4-0.5l0.3-0.3l0.6-0.4l0.4-0.1v-0.6L344,484l-1.7-1.4h-0.8l-0.8,0.2
	l-0.1,0.1l-0.4,1.2l-1.2,0.5l-1.3,0.4h-0.4l-3.6-0.7l-1.4-1.4l-1.1-2.1l-0.5-0.5l-0.2-0.1h-0.2l-6.6,0.1l-7.5,3l-0.3,1l0.2,3
	l0.1,0.4l0.4,0.3l5.5,3.9l0.2,0.1l0.6,0.1l1.3,0.4l0.5,0.3l0.5,0.6v1.3l-0.2,0.6l-0.1,0.2l-0.7,0.5l-0.7,0.2l-0.3-0.1l-2.8-0.6
	l-2.5-0.6l-0.5-0.1l-0.3,0.2l-0.1,0.2v1.7l0.2,0.1l0.1,1.8l-0.4,0.7l-0.2,0.1h-0.3l-5.2-1.9l-1.9-0.4l-0.2-0.5l-0.4-1.1l-0.6-2.9
	l0.3-3.6l0.3-2.8l-3.1-0.7l-4-1.5l-2.3-2.5l-0.3-1.2l-0.2-1l-1,0.5l-1,0.4l-1.9-0.2h-0.2l-0.5-0.8v-0.6l-0.4-2.4l-2.4-5.1l-0.5-0.6
	l-0.6-0.4l-4.7-2l-1.4-1.9l-1.9-2.4l-0.5-0.1l-6.6,0.7l-1.8,2l-1,1l-0.4,0.2l-0.3,0.1l-0.2-9.7l0.2-0.4l0.4-0.7l0.2-0.2l1.8-1.5
	l-0.7-2.1l-0.8-1.3l-0.3-0.3l-1.3-0.1l-2.1-0.1l-0.5,0.1l-2.5,1l-0.2,0.3v0.6l1.3,1.5l-0.6,1.3l-1,0.2l-1.1-0.2l-3.2-0.6l-0.1-2
	l0.1-2.7l0.3-0.4l0.6-1l1.4-1.7l1.3-2.7l0.5-1.2v-0.4l-0.2-1.4l-2-1.1l1.3-0.4l0.3-0.1l0.1-0.2v-0.5l-0.1-1l-0.4-0.7v-0.5l0.4-1.8
	l0.1-0.3l1.1-1l0.5-0.3l1.6,0.2h1.4l0.7-1.2l1.6-4.2v-0.8l-1-5.8l-1.5-4.9l0.7-1.3l1-0.1l1.4,0.1l2.3,0.4l1.3,0.7l0.3,0.3l0.3,0.2
	l0.4,0.2l0.4-0.1l1.8-0.2l0.2-0.2l0.2,0.1l0.5-0.2l0.3-0.2l0.5-0.7l-0.1-0.1c-5.7-2.7-4.9-19.7,0.7-12.3h-0.2l-0.4-0.5v-0.3l0.4-1.3
	l0.4-0.3l0.9-0.6l0.4-0.8c-9.8-12.8-35.4-13.1-19.1-20.3l3.1-2l6.7-3.9l5.3-1.1l8-5.4l2.6-2.1c0.8-1.2,1.7-2.2,2-3.5
	c1.3-3.3,6.9-3.1,8.8-0.4c2.5,0.6,4.6-0.9,7.2-1.6C309.5,356.1,310.9,352.4,313.8,351.7L313.8,351.7z"/>
<text id="thu-text" transform="matrix(1 0 0 1 177.6262 850)" class="st1 st2 st3">Thüringen 16.202,14</text>
<path id="sch-karte" class="st0" d="M323.8,114l1,3l-1,2.2l-2.6-0.2l-5.2,3.6l-1.4,2.3v1.8l1,2.5l0.2,0.4l0.3,0.9l0.1,0.5l-0.2,1.5
	l-0.4,3.1l3.8,3.7l1.5,0.9l0.2,0.1h1.3l0.4-0.2V140l0.2-0.1h0.2l1.1,0.1l0.9,0.5l1.4,1.5l0.7,3.8l-1.4,1.9l-0.4,2.5l-6.6,8.7
	l-2.1,2.5l-1,1.1l-0.3,0.3l-3.9,2.9l-1.4-0.3l-0.6-0.3h-0.5l-1,0.5l-0.6,1.4l-1.8,8.1h0.1h-0.1l-0.5,0.2l-0.3,0.2h-0.5l-4.1-1.2
	l-0.6-0.2l-0.9-0.6L298,173l-2.4-1.4l-5.9-2.6l-1.6-0.9l-0.6-1l-3.7-4.1l-0.3-0.8l0.2-0.6h-0.5h-0.4l-3.5-2.5l-0.2-0.1l-0.8-2.5
	l-0.1-2l0.3-1.2l0.6-0.6l2.1-1.7l1.3-2.6v-0.1l0.2-0.7l-1.6-2.2l-0.7-0.9l-0.2-4.6l0.6-1.5l0.2-0.8l-1.3-0.7l-0.2-0.1l-0.3-0.1
	l-4.3,2.1l-1.4,0.9l0.5,0.7l-0.8,1.9l-4.9,3.8h-0.8L267,146l-0.9-0.2l-0.3-0.2h-1.2l-1.1,0.1l-0.1,0.7v0.3l-0.3,0.6l-0.4,0.6
	l-3.5,4.4l-0.8,0.4l-0.5-0.3l-1.1-0.9l-1.7-2.1l-0.1-0.7l0.1-0.5h-0.4l-0.2,0.3l-0.7,2.1l-0.3,0.9l-0.4,1.6l-0.5,2.3l-1.6-0.2
	l-1.7-0.6l-5.3-3.5l-2.3-1.8l-0.4-0.6l-0.5-0.9l-0.3-1.2l-0.1-1.6l-0.1-0.5l-0.4-1c-1.9-4.1-5.6-5.9-7.4-10.2l-1.8-3.9l-0.6-1
	l-2.3-3.4l-1.8-1.3l-3.6-1.5c-3.6-0.4-7.2-0.3-10.8-0.5h-1l-0.8,0.2l-0.3-2.6h-0.1c-3.7,2.5-6.6-2.6-7.5-5.8l-1.4-3.2l-2-3.3h-0.4
	h-0.3l-0.1-0.3l1.5-1.2l1.2-0.7l1-0.2l2.5,0.6l0.4,0.4l0.5,0.4l0.6,0.1l0.9-0.2l0.5-0.2l0.2-0.2l0.3-0.3l0.2-0.3l0.1-0.6l0.2-0.7
	v-0.2v-0.3l-0.1-0.4l-3.2-6.6l-0.3-0.3l-0.7-0.2l-0.2-0.1l-1,0.2l-0.4,0.3l-1.2,0.8l-0.5-0.3l-1.1-0.7l-0.2-0.2
	c-2.4-3.9-1.3-4.9,0.3-8.7l0.1-0.4l0.3-3.5l0.1-0.7V82l-0.2-0.1l0.1-0.2v-0.3v-0.6l-0.1-0.4l-0.3-0.5l-0.4-0.5l-0.2-0.1l-0.3-0.1
	h-3.8l-0.7,0.1l-2.5,0.2l-1,1l-0.6,0.8c0.1,0.2,0.3,0.2,0.5,0.2h0.2l0.1-0.1v0.1l-0.2,0.1l-0.1,0.1c-2.3-0.4-4-1.6-5.8-2.7
	c-1.1-1.7-0.4-3.6,0.2-5.4l0.2-0.4l0.1-0.1l1-0.5v0.9c0.6,0.6,1.1,0.7,1.8,0.8c1-0.5,1.9-1.1,2.8-1.7l0.1-0.1
	c0.2-0.3,0.1-0.8,0.1-1.1v-0.2l-0.1-0.6l0.6-2.4l6.6-1.2l1.3,0.1l1.4,0.7c3.6-0.9,6.2-3.8,8.9-6.1l0.1-0.1c0.6-0.7,0.7-1.3,0.8-2.2
	c-0.1-1.5-1-2.8-1.5-4l-6.4-9.1l-3-4.2l-1.1-0.7l-1.8-0.8l-1.2-1.2l-0.4-0.4l-2.2-5.7l-0.7-3.8l-0.9-1.8l-0.1-0.2l-2.3-2.7l-2.1-2.4
	v-0.2l0.4-3.6l1.4-3.4h1.9c0.9,0,1.7,0.7,2.3,1.1l5.4-0.3c2-0.4,4-0.1,6.1,0.1c2.7-0.1,4.2,0.9,6.6,2l0.9,0.6c0.3,0.7,1.5,0.9,2,1
	c1.9,0.2,3.6-0.5,5.4,0.1l3,1.2l2,1l0.3,0.6c-0.3,0.2-0.4,0.6-0.6,0.9c0.1,0.3,0.1,0.6,0.2,0.9l0.7,1.8c3.3,0.5,9.7-1.2,12.5-2.3
	c0.8-0.1,1.5-0.5,2.2-0.8l5.2-4.6l0.5-0.1l2.1,0.8l-0.4,0.7l-1,1.9c2.5,1,5.1,2.1,7.6,3.1l5.9,6.7l1,0.5l0.9,0.2
	c0.2,0.2,0.6,0,0.7,0l1.6-3.5c-0.1-0.5,0.2-0.7,0.4-1.1c2.6,1,2.9,1.3,3.9,3.8l3.3,10.6c0.1,1.7-0.1,3.5-0.2,5.2v5.4l-0.1,0.4
	l-1.6,2.9c-1,1.2-2.3,2.1-3.5,2.8l-2.6,1.3c-0.7,0.5-1.4,0.7-2.2,1c-0.4-0.5-0.9-0.3-1.3-0.3c-0.2,0-0.3,0.2-0.4,0.3l0.7,1.4
	c0.3,0.6,0.6,0.8,1.1,1.2c0.7,0.2,1.6-0.1,2.3-0.2c1-0.2,2-0.8,2.9-1.2c0.2-0.2,0.5-0.3,0.7-0.4l5.2-1.2l3.8-0.8
	c1.1-0.3,2,0.4,2.8,1s1.4,1.3,2.1,1.9l-1.5,2.4c0.5,1.4,0.6,2.9,0.9,4.4c-1.1,0.7-1.6,1.7-1.9,2.8l1.3,1.8c0.7-2.2,1.8-4.2,2.7-6.3
	c2-1.4,4.6-2.8,6.6-3c1.2,0.2,2.5,0.6,3.5,0.9l12.5,6.1c0.9,0.5,1.8,1.1,2.5,1.7c0.3,0.4,0.5,0.8,0.8,1.2c0.2,0.8,1.4,1.8,2,2.5
	c0.4,0.4,0.9,0.5,1.3,0.7c1.1,0,2.2-0.1,3.3-0.1c1.6-0.1,3-1.4,4-2.3c0.7-0.6,1.3-1.4,1.9-2.1c1.4-1.2,2.8-2.4,4.3-3.5
	c3-0.7,6.2-0.5,9.3-0.7L334,73c-0.4,0.3-0.4,0.7-0.5,1.1l0.1,2.3l0.6,6.7l0.8,5.7l-0.1,0.1l-0.1,0.1c-1.1,0.9-2.1,1.8-3.2,2.6
	c-2.3,1.4-4.2,3.2-6.2,5l-2.6,3.3c-0.5,0.4-0.9,0.6-1.5,0.8l-2.2-0.4l-0.3-0.1l-0.5-0.3l-3.2,3.4l-0.2,0.2c-0.4,0.9-0.4,1.5-0.3,2.3
	l0.7,1.6c1,2.3,2.2,3,4.5,2.9h0.2l0.9-0.3c1.4,0.8,1.9,1.3,1.6,2.8C322.7,114,323,113.8,323.8,114L323.8,114z M170.1,10.2l-1.1,2.9
	c-0.5,1.3-0.9,2.6-1.2,4c-0.3,1.5-0.4,2.9-0.5,4.4l-0.6,9.1c-0.1,0.9,0.4,1.7,0.8,2.4h0.2l0.1-0.2c0-2.7,0.1-5.5,0.2-8.2
	c-0.1-0.2-0.1-0.5-0.2-0.7v-0.2l0.1-1.5l0.5-1.4l0.2-0.3l2.1-1.4l0.6,0.5l0.2,0.2l1.4,0.8l1.4,1l0.5,0.2h0.2l2.7-1.4l1.8-1.5
	l-0.1-0.1l-0.4-0.1l-0.5-0.1c-2.6,0.4-3-0.1-4.8-1.8l-1.7-1.7l-0.4-5.9l1.1-2.3c0.4-0.5,1-1,1.5-1.4h0.1l1.2-0.3l1.3-0.8l1.6-3.1
	l-0.1-0.1l-0.1-0.1c-0.9-0.4-1.8-0.8-2.7-1h-0.3L175,0.3c-0.5,0.2-0.8,0.8-1.1,1.1L172,6l-0.3,0.9L170.1,10.2L170.1,10.2z
	 M174.5,33.1l-0.4,0.7c-0.4,0.7-0.5,1.3-0.6,2.1l0.1,0.4l0.2,0.3l0.2,0.2l4,2c1.7,0.5,3.6,0.4,5.1,0.5h0.4l0.2-0.1l1.9-3.9l-0.6-2.4
	l-0.2-0.3c-0.6-0.5-1.3-0.8-2-1l-0.5-0.1C179.9,31.4,176.5,31.3,174.5,33.1L174.5,33.1z M169.7,44.7l0.7,1.1l0.2,0.1h0.3h1.2
	l1.2-0.6c0.2-0.3,0.3-0.7,0.4-1c-2.3-1.2-2.9-3.9-3.6-5.7c-0.2-0.5,0-0.8,0.1-1.2c0.2-0.7,0.8-1,1.3-1.5l-0.1-0.1h-0.2l-0.4,0.2
	l-2.5,2.2l-0.3,0.4c-0.3,0.6-0.3,1.2-0.4,1.8C167.3,41.7,168.8,43.4,169.7,44.7z M184.7,44.3l3.7-0.9c0.6-0.3,0.8-0.8,1-1.3l0.2-1
	l-0.2-0.1c-2.6,1-5.3,2-7.9,3.2l-0.2,0.4c0.3,0.4,0.7,0.7,1.1,1L184.7,44.3L184.7,44.3z M180,49.6l0.1,0.2c0.4,0.8,1.4,1.2,2,1.7
	l0.3,0.2h0.8c0.7-0.1,0.5-0.4,0.7-0.8l-0.8-1.2c0-0.3-0.4-0.3-0.5-0.4l-0.7,0.2C181.2,49.3,180.5,49.5,180,49.6L180,49.6z
	 M187.5,58.8l1-0.2l0.9-0.3c0.3,0,0.4-0.3,0.6-0.5l1.1-2.4c0.6-0.9,0.6-1.8,0.7-2.9l-0.2-0.1c-1.2-0.2-2.2,0.3-3.4,0.7l-0.3,0.1
	l-2.6,1.1C183.5,55.7,185.7,58.8,187.5,58.8L187.5,58.8z M201.2,55.5l-3.1,2l-0.4,0.5v0.3c1.2,7.3,6.1,3.3,8.5-0.4v-0.2
	c0-1.3-0.4-1.6-1.5-1.9C203.5,56.1,202.4,55.8,201.2,55.5L201.2,55.5z M332.9,54.3c-0.5,0.3-0.9,0.8-1.3,1.2s-0.7,1-1,1.5
	c-0.4,0.8-0.7,1.7-1,2.5l-0.1,0.3c-0.1,1.3-0.3,2.6-0.2,4l0.1,0.2l1.6,1.1l0.3,0.1l0.4,0.1h-0.1l-0.4-0.1c-0.9-0.3-0.8-0.5-1-1.2
	l0.2-0.2c1.9-0.9,3.1-0.5,4.3,0.1c0.4,1.1,0.2,1.9,0.1,3.1l5,0.9l8.1,0.1v-0.1v-0.6l-1.5-2.7l-1-2.2l-3.1-4.8L339,56l-5.4-1
	C333.5,54.7,333.1,54.5,332.9,54.3L332.9,54.3z M189.8,104.7l-0.1-0.1l-0.4-0.4l-0.5-0.6v-0.4l0.1-0.5l0.2-0.4l0.2-0.3l0.2-0.2
	l0.2-0.1l0.3-0.1h0.2l0.3,0.2l0.1,0.1l-0.2,2.5l-0.3,0.2L189.8,104.7z M142.6,88.7l1.2-0.1v0.6l-0.8,1.5l-0.8-0.1l-0.3-0.1l-0.8-1.6
	v-0.2l0.5-0.4l0.5-0.2L142.6,88.7L142.6,88.7z"/>
<text id="sch-text" transform="matrix(1 0 0 1 125.9927 850)" class="st1 st2 st3">Schleswig-Holstein 15.802,49</text>
<path id="sac-an-karte" class="st0" d="M367.8,207.8l1-0.6h1v0.1l1,0.1v0.1v0.2v0.2l-1,1.1v0.3v0.4v0.3v0.3l4,2.9v0.1h1l1-0.5l1-0.5
	v-0.1v0.1h1v0.2v0.2l5,3l1,0.3v0.8v0.3l-1,0.2v0.4l-1,0.6v0.4v1.1l1,0.2v0.2l4,1.5l5,1.6v0.1l8-1l1-0.7v0.2v1.3l1,2l1-0.5l1-0.5
	l2-0.7l1,0.6l1,0.5v0.2l1,4.9v1.8l-2,0.8v1.4l-1,1v4.5c0.6,1.4,1.3,2.7,2,4l1,0.8c-0.1,1.4-0.6,2.8-1,4.2l-1,1.2h-1
	c-0.1,0-0.8,1.1-1,1.5c-0.4,2.7-2,5.2-2,7.9c1,1.1,2,2.2,3,3.2c1.2-0.2,2-0.5,3-1v-0.1v-1l5,1.9l1,3.3l-1,0.9v1.1l-1,2.1v1.7l1,2.8
	v3.5l-1,2.4v0.1c-0.5,1-1.3,1.9-2,2.8v2.3v6.5l-2,4.1c1.9,2.2,3.5,4.6,5,7l3,3.4l1,1.9l5,2.8l7,2.8l4,0.7c1.2-0.1,2-0.8,3-1.4v-2h1
	c1,0.4,2,0.9,3,1.4c0.8,0.8,1.9,1.2,3,1.7h1v1.5l5,2.8l2,0.7c0.8,0.1,1.3-0.1,2-0.4l5,2.6l3,3.2v0.2l3,0.2l2-0.8v-0.4
	c0.2-0.8,0-0.6,1-0.6v0.3c0.9,0.4,0.8,0.6,1,1.3v0.7l-2,0.3v0.2v0.3l4,11.7v0.3v0.4l1,0.8v0.5v0.2l-1,2.6l-1,0.5l-6,4.3l-3,0.3
	l-6,0.3l-10,0.2l-1-0.4V347c-0.6-0.4-1.3-0.4-2-0.5c-0.1-0.2-0.7-0.1-1-0.1c-0.7-0.2-0.8,0.4-1,0.5v0.3v0.6l-1,1.8v0.2
	c-1.1,0.6-2,1.2-3,2l-2-1.4l-1,1.1l-2,1l-7,2.2l-2,0.2l-3,0.1h-1l-5,2.8l-3,3.1c-1.1,2.5-2,5.1-3,7.7v1.4l1,3.4l1,0.1v0.1
	c0.1,2.1,0.6,4.1,1,6.1v1.6l-1,0.5l-2,0.9c0.9,2.2,1.9,4.3,3,6.3v1.9v0.3l1,2.4v7.2l2,0.5v0.1l1,0.6v0.4l-1,0.6l2,2l2,0.9l-2,2.6
	v1.6l2,1c0,1.1,0.1,2.2,0.2,3.1c-1.4,2.6-1.7,5.4-3.9,7.4H413h-0.2c-0.7-0.6-1-1-1-1.9l-2-1.8v-0.1v0.5l-1,0.3v0.3v0.7l-1-0.5
	c-1.9-0.6-3.4-1.5-5.2-0.6c-0.5-0.1-1,0.2-1.5,0.3l-1.3,0.2v-0.9v-0.3l-1-0.5l-2-3c-0.3-0.7-1.3-1.3-2-1.8l-4-2.2
	c-0.9-0.1-3.6,0.5-5,0.9l-2-0.5l-5-1.5v-0.6v-1.3c-0.5-0.9-1.3-1.5-2-2.2l-7-1v0.2v0.7v0.3c-1.4,1.2-3.3,0.7-5,0.7v-0.2l-1-0.4V405
	l-1-3.4l1-0.3v-0.5l1-1.2v-0.3c-0.5-2-1.4-2.9-3-4.1l-1-0.3c-0.3,0.1-0.7,0.3-1,0.4h-1l-2-1.3v-0.8l1-1v-0.5v-0.2l1,0.9l1-0.2V392
	c0.3-1.6,2-2.9,3-3.9c-0.1-1.1,0.2-1.2,1-1.8v-0.1v-0.3l-1-0.5l-1-1.2V384c-1.2,0-1.2-0.9-2-1.4v-0.1v-0.2c1.8-0.6-0.1-0.8-1-1.5
	l-1-1l1-1.9v-0.3l-1-0.3l-4-1.6c-1-0.2-2-0.2-3,0h-2l-6-0.2l-6.9-2.1c-2.3,1.3-3.4,0.4-5-0.7c0-1.7,0.2-3.3,0.3-5l-2.7-3.9
	c-1.3-1.9-2.3-4-3.3-6.1l0.5-1.7l1.7-2.2l-1.3,0.5c-0.8-0.8-1.5-1.5-2.4-2.1l-2.9-0.7c-1.8-0.2-3.5-0.2-5.3-0.3l-1.8,0.3l-0.4-0.2
	h-0.1l-0.3-0.3l-1.2-2.2l-0.2-0.3l-0.2-1.2l-0.1-0.9l0.2-0.5l-0.9-2.2l-3-4.5l-1-0.6l-0.7-1.4l-0.3-2.9v-3.4l0.1-0.5l0.4-0.5
	l2.1-1.8l0.4-0.1h0.4l0.2-0.2l1-1.6l0.1-0.3v-0.8l-0.1-0.6l-0.1-0.3l-0.5-0.7l-0.8-0.3l-0.9-0.4v-1.6V321l0.8-1.1l1.2-0.4l-3.7-2.8
	l-1.7-2.4l4.2-0.5l1.8-1.6V312l0.1-0.3l-0.2-0.5l0.1-0.9l2-0.6l1-0.2l5-0.1h0.3l0.9,0.3l1.8-0.1l1.4-0.3l0.4-0.1l0.9-0.7l0.5-0.1
	l3.5-0.1l1.7,0.2l0.1,0.1l0.3-3.1l0.4-1.9l2-1.5l1.9-1.5l1.2-1.8l0.1-0.3l0.1-1.4l-0.1-0.4l-0.1-0.1h-0.1l-0.9,0.1h-0.5l-0.7-0.4
	l-0.3-0.3l-0.2-0.2l-0.1-0.3l-0.1-0.4l0.1-0.8l0.4-1l0.3-0.6l0.3-0.2l1-0.4l0.7-0.2l1.1-0.2l0.6-0.8v-0.1v-0.1l-0.4-0.9l-1.5-2
	l-1.3-1.4l-1.5-1.6v-0.1l-0.4-4.1l1.2-1.7l0.6,0.2l0.1-0.1l1.2-0.5l0.8-0.7v-0.1l0.1-1.4l-0.1-0.4l-0.6-0.6l-0.8-0.7l-0.2-0.1
	l-0.3-0.1l-1.3-0.8l-4.5-5.7l-0.9-1.9l0.6-1.5l2.3-1.2h1.7l-1.8-2.1l-1.3-1.7l-0.8-1.2l-0.3-0.8l-0.4-1.4l0.2-2.1v-0.1l-2.8-5.4
	l-3.7-5.3l-2.6-2l-2.6-7.1l0.1-0.6l0.1-0.6l-0.2-2.3v-0.2l0.5-2.2l2.1-0.6l2.6-0.5l6.1-0.2l2.9-3.1l0.2-0.4v-0.1l-0.1-0.5v-0.7
	l0.2-0.7l0.3-0.4l0.3-0.1h0.3l9.3,0.4l3.9,0.7l0.7,0.8l0.3,0.3l0.2,0.4v0.2v0.2h0.1l0.3,0.1l3.6,0.3l1-0.3l5-2.8l1-0.1v-1.2l2-1.7
	l1-0.6l2-0.3v-1.9v-3.2v-1l1-0.7l1-0.2v0.1v0.5l1,0.4l3-3.6v-0.2L367.8,207.8z"/>
<text id="sac-an-text" transform="matrix(1 0 0 1 144.0327 850)" class="st1 st2 st3">Sachsen-Anhalt 20.451,68</text>
<path id="sac-karte" class="st0" d="M465.8,351.1l1,0.4c0.1-0.7,0.3-0.6,1-0.8c0.3-0.6,2.3,0.7,3,1v0.8c1.2,2.2,2.1,4.5,3,6.9v1.3
	c0.4,3.2-0.2,5.9-1,8.9c1.2,1,2,1.4,2,2.9c1.8,0.3,3.4-0.2,5-0.6v-1.1c0.5-0.8,1.3-1.6,2-2.4l5-2.5c3,2.8,6.8,5.3,10,7.3l3,0.9
	c2.6,0.2,5.3-1.1,7-0.2c1.7,0.1,2.7,0.6,4,0.7c1.4-0.7,2.9-1.4,4-2.1l3,0.1c2.4-0.7,5.4-1.1,8-1.6l2-3.5c1.4-3.2,2.2-6.6,3-10l2.5-3
	h4.5l4,0.5l3,1l5-2.4l3-0.3V352l1-0.2l7-2.5l2,0.9v1.4l1,0.1l4-0.1V351l1-0.3v-2.6l1-0.7l1,0.8c-1.4,1.8-0.6,3.4,0,5.1l4,1.2l1-0.1
	c2.7,1,5.3,2.1,8,3.1v0.1l2,0.9v0.1v0.7l2,2.1v4.5l5,10.4v2v2.9l-1,2.7v1.2l-2,14.4c0.2,2-1.4,3.7-2,5.3v0.2v0.1
	c0.1,1.5-0.6,2.9-1,4.3c-0.9,5.7-5.8,9.9-6,15.5v0.7c-1.7,0.4-3.5,0.2-5,0l-5-2.1l-2-0.8c-0.1-1.2,0.6-2.2,1-3.2l-1-3.8l-2-6.2
	l-2-1.2l-5-4.5l-1,0.3c1.4,0.7,0.8,1,0,2.1c-1.7,0.3-3.3,0.6-5,0.8c-2.5-0.8-4.6-1.1-6-3.2l-1-0.1c0,0.7-0.4,0.7-1,1.1l-2,5.8l1,0.2
	l3,3.4c1.4,0.2,2.7,0.7,4,1.1c1-0.3,1.2,0,2,0.6v0.9l-1,2.5l-5,1.9l-11,5.7c-1.4,0.5-2.1,1.3-3,2.4l-1,0.3c-3.6,1.3-7.2,2.5-11,2.9
	l1,0.4v3.6c-1,0.8-2,1.7-3,2.5l-1,0.2l-1,0.1l-3-1c-2.7,0.3-5.3,0.7-8,1l-8,4.3l1,0.6v0.9v0.1l-2,4.2c-1.4,0.5-2.1,1.9-3,3
	c-2-1.2-3.8-1.9-6-2.1l-6,4.5l-3,3.7v0.7l-2,4.5l-1,0.3l-3-0.9l-6,0.4l-1,0.3v6v0.8l-2,2.5c-1.1,0.2-2,0.9-3,1.5l-1-0.2l-2-1.9
	l-5-2.7v-0.3l-6,3.2l-3,2.1l-2,0.1l-5,0.6l-4,1.3c-3.1,4.4-6.3,8.6-10,12.4l-1,3.7l-1,0.8v2.8v0.6c1.7-0.1,1,1.8,1,3.1h-1
	c-0.7,0-1.3-0.2-2-0.3c-0.2-0.6-0.7-1.1-1-1.6v-0.8l1-0.3c0.1-1-0.5-1.7-1-2.5l-5-8.3l-1-1.3c-2,0-4.2,0-6,0.1v0.3v-0.6l-2-0.8
	l-5-1.3l-1-0.2v-0.3v-3.5v-0.4l-2-2.6c-1.3-0.9-2.8-1.3-4-2v-1.3l1-0.5c0.8-0.9,1.9-1.6,3-2.3c1.3-1.1,0.9-1.1-0.6-1.6
	c-1.1-2-2.1-2-4-1.8l-0.4-0.7V465l-1-1.7v-0.1l1-0.4c1-1.5,2.2-3,3-4.6c0.3,0,0.8-0.3,1-0.4l2-2.3v-0.9c0.7-0.4,1.5-0.9,2-1.4l1,0.8
	v3.1v2.8c2-0.3,4-0.2,6,0.1l1-0.8l1,0.2l1-0.1v-0.1v-0.1c-1.5-0.2-2.1-0.5-2.9-0.7c-0.1-0.5-0.1-1.1-0.1-1.6c2.8-0.8,5.6-2.3,8-3.2
	c0.4,0.2,1.5-0.3,2-0.4l2-2.1V451l1-1.5v-1.3l-3-0.7l-1-0.8l-2-4.5V442v-0.6v-1l1-5.4v-1l1,0.7c1.9,0.4,3.7-0.7,5.5-1.3l-0.1-1.1
	c-1.4,1.2,1.2-1.3,1.6-1.7v-0.1h2c1,0.1,0.9,0.1,1,0.9v0.1l2-0.4V431l1-2.6v-1.2l1-1.3v-0.1c3.3-0.8,7.1-1.2,10-2.1
	c0.9-1.1,1.3-1.5,0-1.9c0.1-1.1,0-1.1-1-1.4l-0.3-3.3c-1.8-0.2-3.1-1.4-4.7-2.1l-3-1.8v-1.8v-2.8v-0.3l-1-0.2
	c-3.3-1.2-6.7-2.4-10-3.5l-3,1.5l-2-1l-2-2l1-0.6c0-0.6-0.5-0.6-1-0.9c-0.2-0.5-1.4-0.5-2-0.6v-7.3c-0.9-1.5-1-2.8-1-4.5
	c-1.2-2.1-2-4.2-3-6.4c1-0.4,2-0.8,3-1.3c0.2-2.7-0.9-5.5-1-7.8v-0.1h-1l-1-3.4c-0.1-2.4,1.2-4.6,2-6.8c0.6-2.4,2.3-3.7,4-5.4l5-2.8
	c2.2-0.1,3.9-0.1,6-0.4l7-2.1l2-1l1-1.1l2,1.4c0.7-0.7,1.3-1.1,1.8-1.7c1.2-0.8,1.7-1.5,2.2-2.4v-1.1c1.4-0.4,2.8-0.1,4,0.3v0.5
	c3.2,1,7.5,0.3,11,0.3l6-0.4l3-0.3C464.4,348.5,465.1,349.8,465.8,351.1L465.8,351.1z"/>
<text id="sac-text" transform="matrix(1 0 0 1 185.1704 850)" class="st1 st2 st3">Sachsen 18.420,25</text>
<path id="saa-karte" class="st0" d="M27.8,560l0.4,0.2l7,2.2h1.5l4.2,0.2l7-1.2l3.7-1.1c2.9-1.8,5-3.1,8.1-4.4l1.9-0.7h0.5v-0.1V555
	l0.1-0.1c1.1-0.7,2.2-1.4,3.4-1.9c1,0.1,1.9,0.2,2.9,0.4c-0.2,0.5-0.2,0.8-0.2,1.3h0.1l1.7-0.8c0.4-0.3,0.7-0.6,1-1l2.7,1.8l3.3,3
	l6.1,3.2l0.7,0.1l0.8-0.4c0.5-0.5,1-0.9,1.6-1l0.2,0.4l0.5,0.7l0.3,1.1v0.2l0.1,0.8l0.1,4.4l-0.5,5.2l-1.6,0.6l-0.4,0.3v0.2l0.2,1
	l0.1,0.4l2.5,1.6l0.1,0.9l-0.2,1.5v0.3l5,2.8l0.7-0.2l1.2-0.5l0.5,0.3l-0.6,0.5l-0.7,4.3c0,0.2,0.3,0.3,0.5,0.5l-0.5,2.3
	c-0.3,0.4-0.6,0.9-0.9,1.3c-0.7,0.1-1.3,0.6-2,0.9l-2.9,2c-0.6,0.7-1,1.2-1,2l1,3.1c1.1,1.4,2.5,2.9,3.1,4.3h1l-0.5,0.7
	c-1.6,1.3-3.2,2.5-4.7,3.8c-2.4-1.6-4.4-1.7-7.3-2c-0.8,0.1-1.2,0.5-1.7,1.1c-0.5-0.4-1.1-0.7-1.6-0.9c-1-0.8-1.6-1.8-2.2-2.8
	l-0.8,2.5l-1.7,1.7c-0.4,0.3-0.6,0.1-1,0.1c-0.7-1.5-0.9-3.2-1.1-4.6c-0.3-0.7-0.2-1.3-0.2-1.9c-0.7-1.7-1.9-2.5-3.4-3.6
	c-1.2-0.5-2.5-0.9-3.8-1.3l-4-0.4l-1.4,0.9l-0.1,0.2c0.4,0.3,0.7,0.8,1,1.2c0.3,0.9,0.5,1.8,0.4,2.6c-0.7,1.4-1.2,1.5-2.7,1.8
	l-5.5-1l-1.1-1.3l-0.6-1.3l1.4-1.8l-0.5-1.3l-2.1-1.3c0.4-1.9-0.6-3.7-1.2-5.2c-1-1.1-2.2-1.8-3.5-2.5c-1.3-1.4-2-2.8-3-4.5
	l-0.1-0.2c-0.5-2.1-1.1-4.3-1.6-6.4c0.2-0.6,0.9-0.8,1.4-1c-0.3-0.7-1-1.1-1.5-1.5l-4.2-3.4l-2.4-0.8c-1.5,0.3-2.4,0.6-3.9,0.6
	c-1.2-1.8-0.8-4.6-0.9-6.8l0.1-0.2l0.3-0.5L27.8,560L27.8,560z"/>
<text id="saa-text" transform="matrix(1 0 0 1 191.0054 850)" class="st1 st2 st3">Saarland 2.568,69</text>
<path id="Rhe-karte" class="st0" d="M147,448l-0.9,1l-0.1,0.4l-0.1,0.6v0.9l0.9,4.8l0.2,0.2l0.3,0.3l1.2,0.7v0.6l-0.4,1.2l-0.7,1.8
	l-0.3,0.7l-0.8,1.8l-0.2,0.4l-0.7,0.2l-1.1-0.4l-1-0.3l-0.5-1.1l-1.2-0.4l-0.3-0.1l-0.6,0.2l-0.4,0.1l-2.4,2.9l-0.5,1l-0.5,2.5v0.3
	l0.5,1.3l0.8,1l-1.8,4.9l-0.3,0.8h0.5l5.3,3.5l2.7,4.9l0.2,0.4l0.1,0.1l0.7,2.3l0.1,0.4v1.9l-2,1.2l-2.1-0.9l-0.7-0.1l-0.9,0.3
	l-1,1.3l0.3,0.5l1.6,1.6l0.4,0.3l0.1,0.1l-1.7,1.9h-0.3l-1-0.2l-1.8-1.1l-4.3,1.9l-0.4,0.1l-0.6,0.5l-1.5,2l-0.1,0.1l0.1,1.3
	l0.4,0.5l0.5,0.4l0.8,0.6l1,0.9l0.1,0.3l-0.4,3l-0.3,0.4l-2.3-0.6l-0.4-0.2l-4.1,3.5l-2,1.1l-1,0.2l0.7,1.9l5.4,7.6l0.5,0.3l0.3,0.1
	l0.3,0.1l3.4-0.1l1.9-0.4h0.3l7.1-2.7l4.1-1.9l2.5-0.8l0.9-0.1l1.1,0.2l1.8,0.3c4.6,2.6,6.1,7.5,7.8,12l-0.1,0.5v0.4l-0.3,0.6
	l-0.4,0.6l-0.1,0.3l-0.1,0.5v0.3l0.2,0.8l2.2,5.7l0.3,0.5l1,1.4l0.5,1l2.8,2.9l0.4,2.3l-0.7,1.1l-0.1,0.2l-0.1,0.3l-0.4,0.5
	l-0.5,0.4l-0.4,0.3l-0.4,0.1l-1.5,0.3l-0.7,0.3l-0.5,0.3l-0.5,0.3l-0.6,0.5l-0.2,0.1l-0.2,0.4v0.2l-0.2,1l0.1,0.4l1.6,5.2l0.5,0.9
	l1.6,2.4l0.5,1.2l-0.1,1.1l-0.4,0.7l-0.1,0.5v0.4v0.4l0.1,0.3l0.4,0.9l1.1,4.4l0.1,0.6l0.5,3.2l-0.3,0.2l-0.2,0.2l-0.1,0.3v0.4
	l0.1,0.2l0.2,0.2l0.2,0.2l0.3,0.1l0.5,0.1h0.7h1l0.6,0.1l0.3,0.2l0.4,0.3l0.1,0.4v0.3l-0.8,2.1l0.1,2.3c0.3,1.8-0.8,3.5-1.7,4.6
	l-0.4,0.3l-0.4,0.3l-0.6,0.5l-0.2,0.3l-0.1,0.3v0.2c0.5,2,2.3,1.4,2.5,3.3l-0.1,0.3l-1.4,0.6l-1.8,2c-0.5,0.6-1.2,1-1.9,1.4
	l-0.6,0.3c-0.9,0.8-1.3,1.6-1.3,2.8h0.1h0.1l0.2,1.8l-2.4,10.3c-0.2,0.8-0.8,1.5-1.3,2v0.1l-1,1c-2.3,2.7-1.5,5.9-3.5,8.2l-1.1,0.8
	l-1.6,1.2l-0.4,0.3l-0.3-0.6l-0.2-0.3l-0.1-0.1l-3.5-0.4c-1.8,0.4-3.7-0.6-5.2-1.2l-1.6-0.8c-0.4-0.7-1-1.3-1.5-1.8
	c-2.6-1.5-5.3-2.5-8.2-3.3c-0.9,0.1-1.5-0.2-2.3-0.6l-5-0.7c-1.8,0.4-3.8,0.9-5.6,0.9c-4.5,0.3-7.6-1.8-11.3-4.1
	c-0.8-0.5-1.6-1.2-2.3-1.8l-2.1-4c-0.1-0.7,0.1-1.3,0.2-2c0-2-1.8-2.3-3.4-3.1L95,601c-1.1,0.1-2.1,0.3-3.1,0.6v0.5l0.1,0.3l0.2,0.3
	h-1l-0.3-0.2l-0.1-0.3l-1.8-2.5l-0.9-1.2l-1-3.1v-0.6v-0.1l1-1.4l2.8-1.9c1.3-0.5,2.2-1.2,3-2.2c0.2-1.2,0.9-2-0.1-2.8v-0.1l0.8-4.3
	l0.6-0.5l-0.5-0.4c-0.6,0.4-1.2,0.6-1.9,0.8l-5.1-2.9c0.1-1,0.3-1.7,0.2-2.7l-2.5-1.7c-0.7-1.7,0.1-1.8,1.7-2.3l0.5-5.2l-0.1-4.4
	c0-1.1-0.7-2.2-1.1-3.1c-0.7,0.6-1.7,1-2.4,1.3l-0.8-0.2l-6.1-3.2l-3.3-3l-2.6-1.7c-0.3,0.5-0.7,0.7-1.1,1l-1.6,0.7h-0.2
	c0-0.3,0.1-0.6,0.2-0.9c-1-0.8-2.1-0.6-3.2-0.6l-3.1,1.8l-0.1,0.1v0.1c0,0.2-0.3,0.1-0.4,0.1l-1.9,0.7c-4.3,2-7,4.4-11.8,5.7
	l-7.1,1.3c-1.9-0.1-3.8-0.2-5.7-0.5l-7-2.2l-0.5-0.3l-1.4-2.1v-0.2l0.1-0.1l1.4-2l0.4-0.4l0.2-0.1l0.5-0.1l0.3-0.1l0.2-0.2l1.3-1.3
	l5.8-9.4c0.4-1.9,1.4-3.8,1.5-5.8l-0.6-4.2l-2-1.4l-1.5,1h-1.6c-0.7-0.4-1.4-0.8-2-1.3l-3.1-3.1l-5.6-3.4l-1.8-2.1
	c-1.4-2.4-3.1-4.9-4.1-7.3l-1.2-2.9l-1.5-6.1l0.3-3l2-7.1l2.5-2.1l-0.3-4.2l0.2-1.4v-0.1l0.1-0.2l7.5-4.8c0.4-1.2,1-2.3,1.5-3.4
	c0.4-0.3,0.9-0.3,1.4-0.4l2.2,1.1l2.8-0.7l1.5,0.1l-0.7-1.1l-0.5-0.8l-0.2-0.5l-0.7-2.7l-0.3-1.3l1.9-0.5l2.1,2h0.1l0.7,1.1l4.9-0.7
	l4.6-1.6l1.3,1.3l0.2,0.2l3.8,1.6l3.2,0.9l3-0.9l0.7,0.1l0.6,0.1l-0.9-1.5l-1-1.8l-0.1-6l3.3-2.1l0.3,0.3l2.4,1.6l0.7-0.2l2.4-1.1
	l1.9-7.7l0.2-1.4l2.2,0.3l0.7,0.1l1.7-0.8l0.2-0.2l1.1-1.1l0.9-1.1l2.5-0.4l5.3-1.2l1.7-0.5l1-1l0.1-0.1l0.3-1.4l0.1-0.5l0.3-0.6
	l0.3-0.1h0.5l0.1,0.3v0.4l-0.1,1.6v0.4h2.9l1.6-0.3l0.9-0.3l2.7-0.8l1.4-0.7l0.2-0.4l0.5-2.1v-1.6l-0.1-1.4l0.5-1l0.4-0.5l2-0.1
	l2.1,0.7l0.3-0.2l0.8-0.4l13.1-4.7l0.5-0.4l1.1-1.4l0.3-0.8l-0.1-1.6l-0.3-0.3l-1-0.9l0.7,0.2h0.3l1.5-0.6h0.2l2.3-2.2l1.3-1.8
	l-0.6-4.9l0.5-0.6l2.4-2.1l0.4-0.2l1.3,0.3l2.4,1.6l-0.5,0.8l-0.5,0.8l-0.5,1.6l-0.1,0.4v0.3l0.1,0.5l2.3,0.6l1.1,0.2l4.9,2.8
	l0.3,0.3l0.2,0.3l0.6,1.3v0.6l-0.3,2.1v0.2l-0.4,0.4l-0.1,0.7v0.9l0.2,0.9l0.3,0.5l0.6,0.8l0.2,0.3l1.5,1.4l1.5,1.5l0.4,0.5l0.1,1.5
	l-0.3,1.5l2.6-0.9l1.3,0.4l0.7,0.6l1,1.2L147,448z"/>
<text id="Rhe-text" transform="matrix(1 0 0 1 143.6228 850)" class="st1 st2 st3">Rheinland-Pfalz 19.854,36</text>
<path id="nor-karte" class="st0" d="M233.3,350.8L232,353l-3.8,4.6l-3.2,5.5l-4.5,3.3l-4.3,3.5l-0.7,1l-0.6,1l-0.6,0.1l-2.7-0.1
	l-0.6-0.2l-0.3-0.2l-0.2-0.3l-0.6-1.6c1-1.7,0.6-2.1-0.4-3.7l-2.9-1.3c-3.1,0.3-5.1,1.2-7.9,2.4l-0.7,0.7v0.4
	c0.6,1.7,1.8,3.2,2.7,4.8l0.6,0.2l0.3,0.1c0.3,1.5-0.1,2.6-0.6,4.1h-0.1c-2.5-0.3-5.1-0.2-7.6-0.1c-7.6,1.2-13.2,5.3-17.1,11.1
	l2.1,2.9l0.2,0.2c0.3,0.1,0.7,0.1,1,0.1c0.4,0,0.8-0.4,1.1-0.7c2.6-0.9,5.3-3.3,7.1-0.9c0.4,2.2,0.6,4.4,0.8,6.6l0.2,2l-0.1,0.4
	l-0.3,0.7l-2.8,6.2l-3.2,1.2h-0.4l-1.2-0.2c-0.7-0.4-1.6-0.5-2.4-0.6l-2.8-0.2c-0.5,0.2-0.9,0.4-1.4,0.6c-0.4,0.2-0.6,0.5-0.9,0.8
	c-0.5,0.3-0.7,0.7-1,1.1v0.2l0.1,0.3c0.7,2.1,1.2,3.7,2.1,5.5c-1.3,1.7-3,3.2-4.1,4.5l-0.1,0.1v0.3l0.2,0.3h-0.1h-0.6
	c-0.2,0-0.3,0.2-0.5,0.3l-0.1,0.2l-0.6,2.6l-4.2,6.5l-1.2,1.2l-0.1,0.1l-0.5,0.1l-0.2-0.1l-4.1-2.1l-0.2-0.1h-1h-0.2l-0.2,0.1
	l-9.4,9.4l0.4,1l0.4,0.8l0.7,1.5l0.8,1.1l0.2,1v0.3l-2,3.7l-0.8,1l-1-1.2l-0.7-0.6l-1.2-0.4l-2.7,0.9l0.3-1.5l-0.1-1.5l-0.4-0.5
	l-1.5-1.5l-1.4-1.4l-0.3-0.3l-0.6-0.8L137,439l-0.2-0.9l0.1-0.9v-0.7l0.4-0.4l0.1-0.2l0.2-2.1v-0.5l-0.6-1.4l-0.2-0.3l-0.3-0.3
	l-4.9-2.7l-1.1-0.3l-2.3-0.6l-0.1-0.5v-0.3l0.1-0.4l0.5-1.5l0.5-0.9l0.5-0.8l-2.4-1.6l-1.3-0.3l-0.4,0.2l-2.4,2.1l-0.5,0.6l0.6,4.9
	l-1.2,1.8l-2.4,2.2h-0.1l-1.6,0.6h-0.3l-0.7-0.1l1,0.8l0.3,0.3l0.1,1.6l-0.3,0.8l-1.1,1.4l-0.4,0.4l-13.1,4.7l-0.9,0.4l-0.3,0.2
	l-2.1-0.7l-1.9,0.1l-0.5,0.5l-0.5,1l0.1,1.4v1.6l-0.5,2.1l-0.2,0.4l-1.3,0.7l-2.8,0.8l-0.8,0.3l-1.6,0.3h-3v-0.4l0.1-1.6v-0.4
	l-0.1-0.3h-0.5l-0.2,0.1l-0.3,0.6l-0.1,0.5l-0.4,1.4l-0.1,0.1l-1,1l-1.6,0.5l-5.3,1.2c-3.9,0.8-4.8,4.1-9.3,3.2l-0.3,1.4l-1.8,7.7
	l-2.4,1.1c-1.2,0.5-2.2-0.8-3.1-1.4l-0.4-0.2l-3.2,2c0,3.9,0.1,6.3,1.9,9.3c-1.5-0.4-3,0.3-4.3,0.7c-3.4-0.9-6.1-1.8-8.4-4l-4.7,1.6
	l-4.8,0.7l-0.7-1.1c-0.8-0.5-1.6-1.3-2.3-2c-2.1,0.6-1.2,1.5-0.5,4l0.2,0.7l-0.8-0.1l-2.4-2.9l-0.1-2c0.9-1.3,1.1-2.7,1.4-4.3
	c-0.1-2.8-1.3-5.2-3.4-6.7l-0.2-0.2c-2-1.1-3.7-0.8-5.6,0.1l-0.1,0.1l-0.1-0.1c-0.8-1.1-1.6-2.2-2.3-3.3c-0.5-1-0.5-2-0.6-3.1
	l0.1-0.2c2.8-2,3.4-3.7,4.1-6.8l-3.5-0.9l-0.9-1.1c1.9-0.5-1.8-5.7-2.7-7.9l-0.3-0.3l-0.2-0.2l-4.4-2.5l-2.7-4.4l1.6-5.2l0.2-0.8
	l1-0.3l1.1-0.4l0.4,0.1l0.1,0.3l1,0.5l1.1-2.6c-0.1-0.8-0.6-1.4-0.8-2.1l0.4-1.5c0.1-0.3,0.3-0.4,0.5-0.6l0.1-0.2v-0.4l-2.1-0.9
	l-2.4-0.9l-0.1-1.3v-1.5l0.6-1.2l0.3-0.9v-0.1h-0.5L7.5,412l-2.6,0.6l-0.9-1l-1.4-3.1l-0.6-3V405l0.1-0.1l3-1.4l6.2-2l7.9-5.3l1-2.8
	l2.4-1l0.4-0.2l-1-0.9l-1,0.5l-1.7,0.7l-0.5,0.4l-0.1,0.1l-0.2,0.2l-0.4,0.2l-0.3,0.1h-0.5h-0.2l-0.5-0.1l-0.5-1.1l-0.1-3.2l1.2-3.5
	l7.2-9.1l2.3-2.5l-1-3.6l0.7-3.2l0.5-1.5c0.2-1,0.3-1.9,0.3-2.9c-0.1-1.9-0.4-3.7-1.1-5.4l-2.6-4.2l-0.7-0.5l-3.3-3.8
	c0.6-1.8,0.2-3.7,0.1-5.6c-1.3-0.5-2.6-1-3.5-1.9l-0.1-0.1l-1.9-6.2l-1.5-7.1l1.5-2.5l4.4-1.9l2.2,0.1l4.9-0.7l2-1.3l4.9,0.2
	l0.3,0.1c3.1,1.6,4.8,3.5,7.5,5.1l0.5,0.1c-0.4-1.8-1.5-3.1-0.9-4.8H40l2.2,0.9l4.8,0.1c3.8-1.8,8-3.7,11.7-4.5
	c0.9,0.6,1.5,1.6,2.2,2.2v0.1l0.7-0.3c2.8-1.6,4.4-3.9,6.4-6.4c0.4-1,0.3-2,0-3l-4.5-3.8l-2.4-1.3c0.6-2.2,1.8-4,3-5.9l5.7-1.9
	c0.9-0.1,1.1-0.6,1.7-1.2c0.2-2,1.1-3,2.4-4.4c3.4-2.1,6.8-4.2,10.2-6.3c1.5,0.1,2,0.1,2.8-1.1c3.7-2.1,8.1-0.8,11.9-0.6
	c1.4-2,3.8-2.8,5.3-4.1l3.7-2.8l4.2-2.5l1.7-1h0.3l0.3-0.1l2.3-1.1l1.8-3.2l0.1-0.7l-1.3-0.7c-1.6-1,0.9-4,1.5-4.8l0.2,0.1l4.7,1.8
	l0.1,0.2c1.1,1.7,1.6,3.8,2.3,5.8l5.1,3.1c2,0.7,3.6-0.3,5.3-0.8c1.9,0.8,2.8,1.7,3.8,3.4c1.1,3.1-1.2,3.5-1.6,5.6l0.1,0.6l0.2,0.2
	c1.9,2.3-1,4.7-2.5,7.9v0.1l0.2,0.8l0.3,1l0.3,0.5l1.2,0.8l0.1,0.1l2.3,0.4l2,1.9l0.2,4.1l-3.2,1l-3.7,1.2l-1,0.7v0.1h0.3l1.4,2.3
	l0.2,1l1.1,0.6l1.8,0.8l1.1,0.4l0.6-0.9l0.4-0.6l2.3-1.7h0.2l1.5,0.1l1,0.1l1.1,0.3l0.3,0.7l2.3-1.5l1.6-0.3l4-2.9l1.7-1.7l1.4-1
	l0.6,0.1l2.9,0.6l2.5,0.9l3,0.3l-0.3-0.7l-0.1-0.6l0.1-0.3l0.3-0.5l0.5-0.4l2.2-1.5h0.1h0.7h0.3l0.6-0.3l0.2-0.2l1-1l0.5-0.6
	l0.6-0.9l-1.2-0.6l-1.2-0.4h-0.4l-0.3-0.2l-0.7-0.6l-0.6-1.1l-0.1-0.2l1.1-4.4l0.5-1l-0.2-3.3l0.1-1.8l-1.5-4.6l-2.2-1.7l-5.2-3.9
	l-0.7-3.2l-0.5-1.1l0.4-0.3l0.5,0.1l2.4,0.7l0.3,0.3l-0.1,0.1l0.5,0.6l3.4-0.3l1-0.1l1.5-1.3l0.1-0.4l0.2-1.3l0.1-1.4l3.1-2.4
	l3.1,1.5l5.9-3l2.2,1.6l0.7,0.7l0.2,0.6l0.1,0.3l-0.3,1.3l0.2,7.7l0.2,1.4l0.5,0.4l1.9,0.8l6.7-0.1l5.1-1.1l0.2-0.1l2.9-3.7l2.1-2.8
	l0.8-1.4l1.6-2.1l2.3,0.6l2.7,1.2l0.2,0.7l0.1,0.2l-1.8,4.1l0.9,2.3l-0.1,0.7l-0.2,0.5l-1.5,3.1l-0.8,1.5l-0.1,0.1l-0.7,0.7
	l-0.8,0.4l-1.2,0.2l-1,0.5l-1,0.7l-0.7,0.4l-2.3,4.8l0.6,1.5l0.1,0.2l0.3,0.1l1.6,0.4l2,0.8l2.5,1.7v0.3l-2,4.9h-1.5l-2.3-1.3
	l1.9,2.6l3.5,2.6l3.5,0.7l0.9,0.3l0.2,0.1l0.5,0.6l0.4,1l-0.3,2.2l1.3,1.2l1,1.6l-0.2,0.1l-0.5,0.3l-0.4,0.7l-0.1,0.2v1.8l0.3,6.2
	l0.6,1.5l5.6,4.1l0.9,0.5l1-0.1l0.1-0.1l0.3,0.1l1.1,0.6h0.1l0.4,0.9l0.4,1.3l-0.1,0.6l-0.1,1l-0.5,2.4l-0.3,0.2l1-0.7l0.4-0.2
	l0.6-0.2h0.2l0.5,0.1l1.4,0.6l0.6,0.3l1.8,1.8l-0.1,3.4l-1.2,3l-1.8,5.6l-0.9,7.2c0.7,0.7,1.7,0.5,2.6,0.4h0.1l0.5-0.3l0.6-0.2h0.3
	l0.1,0.1L233.3,350.8z"/>
<text id="nor-text" transform="matrix(1 0 0 1 117.4597 850)" class="st1 st2 st3">Nordrhein-Westfalen 34.110,40</text>
<path id="nie-karte" class="st0" d="M178.7,149.4c-0.7-1.7-1.4-3.5-2.1-5.2v-3.3c2.3-7,3.6-14.8,8.4-19.7l1.8-0.6l1.3-0.3l1.1-0.1
	v0.9c0.5,0.7,1.1,1.4,1.7,2.1c2.2,1.8,4,3.1,6.7,3.4l5.1,0.4l1.6-0.3l0.3-0.1v-0.1l0.1-0.1c0.9-0.4,2-0.5,2.9-0.6l2.1,0.6
	c-0.9-1.2-1.2-2.7-1.7-3.9l0.9-0.3l0.8-0.3c0.6-0.2,1.2-0.2,1.9-0.2l3.2,0.2h5.7c2,0.1,3.6,1,5.4,1.8c2,1.1,2.9,2.9,4.2,4.7
	c1.2,2.4,2,4.3,3.1,6.7c1.5,3,2.7,2.6,5.9,6.5c1.5,2.2,1.1,4.8,2.1,7.1l0.4,0.6c2.4,2,5.1,3.6,7.7,5.3c1.1,0.6,2.1,0.6,3.3,0.7
	l2.7,0.4c-0.6,3.5,0.1,5.1,1.5,8.1v0.6l3.4,3.5l0.3-0.1l0.8-0.6l1.3-1.4l0.3-0.2l0.3,0.2l0.7,1l2.2,2l1.5,1.3l0.5-0.1l2.8-2l0.2-0.9
	l0.6-1.3l0.5-0.8c2,0.9,3,2.6,4.4,4.2l2.6,2.4l0.4,0.3l0.4,0.1l3.2,0.1l0.4-0.1l0.2-0.1l0.2-0.2l0.6-1.5l0.2-0.3l0.2-0.3l0.4-0.2
	l2.2-1.2l0.2-0.1h0.2l1.6,0.9l5.9,2.7c1.6,0.7,2.7,1.5,4.1,2.4l0.6,0.2l4.1,1.2h0.5l0.3-0.1l0.5-0.3h0.1h-0.1l0.7-0.5l0.6-0.2
	l1.1-0.1h4l0.2,0.1l0.2,0.1c1.1,0.8,2.1,2,2.9,2.9c4.5,6.6,6.6,2.2,10.1-0.6l2.6,0.7l1.8,0.5c1.7,3.9,3.6,8.4,5.8,11.5
	c1,1.1,2.4,1.9,3.6,2.8c1.8,0.6,3.9,0.3,3.3,2.5c-0.1,0.3-0.4,0.5-0.6,0.8l-0.6,0.2l3.6,1.4c0.9,0.3,1.5,1.1,2,1.7
	c0.7,0.8,1,1.2,1,2.1v0.4v0.2c1.2,1.6,2.6,3,4,4.4v0.2h1c0.8-0.9,1.9-1.3,3-1.7v-0.2c0.4-0.3,1.4-0.4,2-0.6l1-0.1v0.1
	c0.5-0.1,0.9,0.3,1,0.4c0.9,0.5,1.4,1.3,2,2.1v0.4c1.7,0.3,3.3,0.8,5,1.2h1v0.2v0.1l-2,3.6h-1l-1-0.4v-0.5v-0.1l-1,0.2
	c0.1,0.8-0.5,1.1-1,1.6c-0.3,2.1,0.1,3.4,1,5.2c-1-0.1-2,0.2-3,0.3c-1.1,0.4-1.4,1.2-2,2.2c-1.7,2.3-4.8,3.1-7,4.2l-1,0.3l-3.5-0.3
	l-0.3-0.2H346c-0.7-2.2-3.2-2.1-5.2-2.5l-9.2-0.5c-1.2,0.2-1.2,1.3-1.1,2.4c-0.8,1.4-2.1,2.6-3,3.6l-6.1,0.2c-3,0.6-4.5,0.3-5.3,3.3
	v0.2c-0.2,3.9,1.3,7,2.6,10.7l2.7,1.9c2.7,3.3,4.6,7,6.5,10.7v0.1c-0.3,1.2-0.2,2.3,0.1,3.5c1.1,2.4,2.6,3.9,4.3,5.9
	c-1.6-0.3-2.6,0.4-4,1.2c-1.4,6.3,7.9,9.2,8,13.1l-0.1,0.2c-1.8,1.2-2.6,1-3.9,2.7l0.4,4.2h0.1c0.9,1.1,1.8,2,2.8,3
	c0.7,0.9,1.3,1.9,1.9,2.9v0.1l-0.6,0.9c-2.2,0.1-4.9,1.9-3.6,4.3c2,1.3,2.9-0.4,2.7,2.5l-0.2,0.3c-1.3,2.2-3,3.3-5.1,4.7
	c-0.3,1.7-0.4,3.4-0.6,5.1l-0.2-0.1l-1.7-0.2c-1.8,0-3.5-0.1-4.9,0.9c-1.5,0.5-3,0.6-4.5,0.2h-0.2c-2.7,0-5.6,0.1-8,1l-0.1,0.8
	l0.2,0.5l-0.1,0.2c-1.3,2.3-3.6,2.1-6,2.4c1.3,2.3,3.3,3.6,5.4,5.2c-1.1,0.2-1.4,0.6-2,1.5l-0.1,0.2c0,2,1.4,1.7,2.3,2.9
	c0.4,3.5-2.5,4.2-4.4,6.3c-0.2,2.7-0.2,6.2,0.8,8.2l1.1,0.6l3,4.4c0.7,1.4,0.6,2.3,0.8,3.7c0.1,1.6,1.1,2.9,1.9,4.1h0.1l0.3,0.1
	c-0.6,0.5-0.9,0.3-1.5,0.2l-2.1,5.7c-0.7,2.1-2.5,2.4-4.4,3.2c-2.4,0.8-4.2,1.2-5.9,0.9c-5.4-2.3-5.5-2.7-7.5-1.1
	c0,0-2.4,4.6-4.1,5.9c-8.2,8.1-12.5,5.9-20,10.4c-1.2,0.8-2.3,1.6-3.6,2.2l-0.2,0.1l-0.2-0.1l0.3-0.3c0.2-0.7-0.1-1.2-0.3-1.9
	l-1.3-2c-2-0.3-4.7,0.4-6.5,0.7c-4.1,3.3-7.4,3.5-4.3,8.3c0.7-0.4,1.5-0.7,2.2-1l0.1,0.2c0.1,1.1-0.1,1.9-0.3,3l-2.4,1.2l-0.1-0.2
	l-3.3-1.7l-5.3-2.1c-1.7-0.3-2.1-1.4-2.9-2.6c0-0.8,0.3-1.5,0.5-2.3c0.4-0.7,0.9-1.4,1.3-2.1c0.7-0.1,1.4-0.3,2.1-0.4l1.3,0.1
	l0.8-1.2l0.1-0.2c-0.4-2-0.7-3.9-1.1-5.9c-1.2-1.1-1.8-2.7-2.6-4.1l-0.1-0.2v-0.1l0.2-0.3l2.4-2.7l1.5-0.3c0.5-1,1.4-1.3,2.2-1.5
	h0.1l0.1-0.2c0.4-0.5,0.1-0.7,0.1-1.2c-1.1-0.8-2.2-1.9-3.1-2.9c-2.6-2.5-6.6-1.3-9.1-2.4c-0.3-0.2-0.2-0.5-0.3-0.7
	c0.4-1.1,0.6-1.4,0-2.1l-3.3,0.8l-0.1-0.1c-0.3,0-0.5,0.1-0.8,0.2h-0.1l-0.6,0.3h-1.6h-0.2l-0.3-0.1c-1.8-0.7,0.1-5.4,0.4-7.5
	l1.8-5.6c1.3-2.2,1.3-4.1,1.3-6.5c-1.1-1.2-2.3-2.2-3.8-2.6c-1.1-0.2-1.7,0.4-2.6,0.9l0.2-0.1l0.5-2.5l0.2-1
	c-0.1-1.9-0.6-2.9-2.3-3.4l-1.1,0.2c-2.6-2.1-6.1-3.7-7.1-6.1c-0.1-2.7-0.3-5.3-0.3-8l0.1-0.3l0.4-0.6l0.5-0.3
	c0.1-1-1.4-2.3-2.1-2.9c0.2-1.2,0.4-2.1,0-3.2l-0.6-0.6c-4.4-0.7-7.4-3.1-10-6.3c1.3,0.9,2.3,1.2,3.8,1.2l2-4.9
	c-0.4-0.8-1.7-1.4-2.5-1.9c-1.2-0.5-2.4-0.9-3.6-1.3l-0.3-0.1l-0.1-0.1l-0.5-1.6l2.2-4.7c1.1-0.9,2.6-1.5,3.9-1.8
	c2.9-2.5,4.8-5.9,3.3-9.4l1.8-4.1l-0.1-0.2l-0.2-0.7c-3.3-1.9-6-1-7.3,1.7l-5.1,6.6h-0.2l-5.1,1.2c-3.2-0.4-8.8,1.2-9.3-2.6
	c0.1-3-0.5-6,0.1-9c-0.5-1.6-2-2.4-3.2-3.2l-5.9,3l-3-1.5l-3.1,2.4c-0.1,0.9-0.3,1.8-0.4,2.7c-0.2,0.8-1,1.2-1.6,1.7l-1,0.1
	l-3.4,0.3c-0.5-0.1-0.3-0.6-0.4-0.7c-0.7-0.6-1.8-0.7-2.7-0.9l-0.4-0.1c-0.7,0.4-0.4,0.5,0,1.3c0.2,3.8,3,4.9,5.9,7.1
	c2.6,1.4,2.8,3.6,3.7,6.3c0.1,3.8-0.7,7.6-1.5,10.5l0.1,0.3c0.3,0.7,0.8,1.2,1.4,1.7c1.3,0.6,3.1,0.9,2.4,2
	c-0.7,0.9-1.4,1.5-2.2,2.1c-1.7,0.7-4.5,1.4-4.1,3.3c-6.4,1.2-6.9-3-11.9,1.5c-2.2,2.2-5.5,3.2-7.8,4.7c-0.3-0.7-0.7-0.7-1.4-0.9
	c-2.6-0.7-3-0.2-5.1,1.5c-0.3,0.5-0.6,0.9-1,1.4c-4.2-1.1-4.1-2.5-5.6-5h-0.3l0.1-0.2c2.3-1.6,5.5-2.2,7.8-2.9l-0.2-4.1
	c-1.3-1.7-2.3-2-4.3-2.3h-0.1c-1.3-0.7-1.7-1.9-2-3.2l0.1-0.1c0.9-2.8,4.3-5.9,2.4-7.9l-0.2-0.2c0.2-2.4,2-4.2,1.5-6.2
	c-1.1-2.3-3.6-3.4-5.3-3c-0.5,0.3-1.1,0.6-1.6,0.8c-10.8-3.7-7.7-5.7-9.6-9.3l-0.1-0.2l-4.6-1.8c-1.3,0.4-2.1,2.9-2.5,4.2
	c5.3,2.6-2.3,5.9-4.5,7.3c-2.8,1.6-5.3,3.4-7.9,5.3c-2,1.9-3.7,2.3-5.3,4.1c-3.3-0.2-5.8-0.4-8.9-0.8l-2.1,0.5
	c-0.3,0.3-0.5,0.5-0.8,0.8l-0.7,1l-2.1,0.1L83,285c-1.2-2.4-0.5-4.7,0.5-6.8c0.8-1.8,1.7-3.5,1.8-5.1c-0.9-3.5-3-6.5-4.6-9.7
	l-0.1-0.1c-0.3-0.3-0.5,0-0.9,0.2c-0.5,1.2-1.2,2.2-2,2.8l-0.4,0.1L67,263.5c-1.8-0.5-3.2-1.9-4.7-3l0.1-0.3
	c0.1-1.1,0.3-2.1,0.6-3.1c0.8-2.3,1-4.6,1.2-7l-0.5-4l2.2-1.8c0.8-0.3,1.7-0.4,2.6-0.6c4.6,0.4,9.5,0.5,13.5,1.7l0.2,0.3
	c0.6,0.5,1.4,0.5,2.1,0.7h0.1c1.8-2.3,1.4-5.8,1.7-8.3l0.4-4.1c0.1-3.4,0.8-6.6,1.7-9.8c3.3-4.1,6.2-9,7.6-13.3
	c1.4-4.3,0.2-9.3,0.5-13.3l-1.1-0.9c-0.7-2.7,1.3-5.2,2.4-7.5l0.4-5.5l1.1-4.8l0.7-2.1l0.1-0.2l0.1-0.1c1-0.4,2.2-0.2,3.3-0.2
	l-0.3-0.2c-1.2-0.3-2.4-0.6-3.6-0.9l-0.9-0.1l-3.1-0.3l-6.9-0.2c-5.3-0.4-2.6-4-2.5-7.4l1.6-12.7l3.4,1.5l0.9,1.4l2-1.9l1-1.2
	c-0.4-0.9-0.8-1.7-1.6-2.2l-1.7-1.1l-0.5-0.6l0.3-0.9l4.6-4.8l1.2-1.2c2.1-1.8,3.9-2.8,6.6-3.7c1.4-0.4,3-0.5,4.3-0.6l7.4,0.6
	c0.9,0.3,1.7,1,2.4,1.4h0.4c3.4-0.8,7-1.9,10-2.8c0.5-0.2,1-0.2,1.4-0.2c0.4,0.5,1,0.4,1.7,0.4c1.5,0,3-0.6,4.4-1.1l6.2-0.5
	c2.7,0.4,5.3,0.1,7.3,1.6c-0.9,2.4-0.4,4.5,0.4,6.6l2.9,0.4c0.6,0.7,1,1.5,1.3,2.2l3.4,7.9c0,0.1-0.1,0.3-0.1,0.4
	c-0.8,2.6-3.6,3.5-5.9,3.5l-1-0.8c-0.1,2.2,0.2,4,1.5,5.7l0.8,0.9l0.4-0.2l0.8-0.5l0.2-0.1c2-0.2,2.8,1.7,3.8,3.2l0.7,1.1v0.1
	c1.6,2.4,4.6,0.5,5.8-1.1c0.4-0.8,0.8-1.7,1.2-2.6c0.7-1.7,0.6-3.7,0.7-5.3l-0.1-1.5l-0.1-0.2c-0.1-0.5-0.4-0.7-0.8-0.9l-1.6,0.6
	c-0.9,0.2-1.8-0.1-2.7-0.3c0.2-2,0.6-4.3,0.8-6.1c1-2.1,2.8-3.6,5.2-3.4c0.8,0.4,1.3,0.8,1.8,1.5c0.8,1.5,1.3,2.6,2.8,3.4l3.7,1.7
	h0.6h0.5l1.4,0.2l0.8,0.1l1.9,1.2l0.1,0.2c0.2,0.4,0.2,0.8,0.3,1.2c-0.2,0.2-0.4,0.4-0.6,0.5c0.5,0.8,1.1,1.5,1.7,2.3v0.2v0.2
	c-0.6,0.1-0.2,0.6-0.2,0.7l0.3,0.2l1.8,0.2h0.2l2.5-2.7c0.2-1.5-0.5-3-0.8-4.4l1.1-5c-0.5-0.3-1.2-0.2-1.7-0.3
	c-2.1-0.1-4.3-0.3-6.4-0.3L178.7,149.4z M206.3,199.2l-0.2-0.5l-1.4-1.7l-0.7-0.5h-0.3l-1.2,0.7c-3.3,0.3-5.5-0.6-8.4-2
	c-3.4-2.4-6.9-2.5-10.8-3l-7.5-4l-0.2-0.8c-0.1-0.9-0.1-0.7-0.1,0.1c0,1.1,0.5,1.9,1,2.7c1.4,1.9,3.3,3,5.4,3.8
	c0.6-0.1,1.1,0.1,1.7,0.2l0.4,0.3l0.2,0.5l1.6,4.2l0.1,1.5c1.2,0.6,2,1.7,2.9,2.7l0.5,0.6l0.1,0.6v2.6l0.5,0.5l0.6,0.5l0.3,0.1
	l1-0.4l0.4-0.1c3.5,0.2,7,1.9,9.8,3l3.2-2.7c0.2-2.3-0.1-4.5-0.3-6.8l-0.8-1.2l0.1-0.1l0.2-0.1l0.9-0.4L206.3,199.2L206.3,199.2z
	 M139.4,131.2c-0.4-0.5-0.8-0.9-1.2-1.4v-0.2c1.8-1.1,4.4-0.2,6,0.2l1.5,0.9c0.3,0.3-0.2,0.5-0.2,0.5c-1.7-0.7-3.6-1.1-5.4-1.5h-0.2
	C139.5,130.1,139.5,130.7,139.4,131.2L139.4,131.2z M148.7,134.4c-1.1-0.6-1.3-1.9-1.5-2.9l0.8-0.9
	C148.7,131.7,148.7,133.1,148.7,134.4L148.7,134.4z M128,133.1c-0.7-0.1-0.8-0.4-0.9-1c0.2-0.5,0.6-1,0.9-1.4
	c1.2-0.8,2.6-0.6,3.7-0.6l2.4,0.2c0.6,0.2,1.2,0.3,1.8,0.4l0.4,0.5c-1,0.6-2.6,0.6-3.7,0.8C130.4,131.8,129.2,131.3,128,133.1z
	 M115.3,135.9c-0.2-0.1-0.4-0.3-0.6-0.4l-0.1-0.8v-0.8l0.1-0.3c0.4-0.7,0.9-1.1,1.5-1.4c1.3-0.2,2.6-0.1,3.9-0.1
	c2,0.1,3.8-0.2,4.8,1.3c0,0.1-0.1,0.1-0.1,0.2H124l0.1-0.2c-0.7-0.2-1.5-0.2-2.2-0.2c-0.6,0-1.2,0.1-1.8,0.1
	C117.8,133.3,116.9,134.3,115.3,135.9L115.3,135.9z M113,136h-1.4l-1.6-0.2l-1.4-0.3l-0.3-0.5v-0.1l0.1-0.1l1.5-0.6l0.2-0.1h0.4
	l2,0.5h0.2l0.3,1.2v0.1L113,136z M94.6,136.5c1-0.9,2.5-1.4,3.7-1.6h7.2l1.1,0.1l0.5,0.1c0.3,0.1,0.3,0.5,0.4,0.8l-0.9,0.4l-0.6,0.1
	l-7.7,1C96.5,137.3,95.6,137.9,94.6,136.5L94.6,136.5z M80.1,140.3c-0.6,0.1-1.1-0.2-1.6-0.5c-0.3-0.3,0.3-0.3,0.4-0.4l9-0.9H91
	l0.9,0.2l0.1,0.2v0.4l-0.1,0.2l-0.1-0.2c-1-0.1-2-0.1-3-0.1l-3.6,0.1c-1.7,0.3-3.5,0.6-5.2,0.9C79.9,140.3,80.1,140.3,80.1,140.3z
	 M70.4,150.8c-1-1.6-1.4-0.9-1.8-0.3c-0.9,0.4-2.3-1.3-3.2-2c-0.7-1-0.9-1.7,0-2.4l5.2-1.6c1.4,0.1,2.2,1,3.3,1.8
	c1.5,1.3-3.6,1.8-4.7,2.1l1.3,1.1l0.6,0.9C71,150.8,70.5,150.7,70.4,150.8z"/>
<text id="nie-text" transform="matrix(1 0 0 1 148.825 850)" class="st1 st2 st3">Niedersachsen 47.614,82</text>
<path id="meck-karte" class="st0" d="M323.8,114l4.5-3.1c1.3-0.8,2.6-1.6,4-2.2c0.9-0.2,1.7-0.4,2.6-0.6c1.9-0.2,3.7-0.2,5.6-0.3
	c0.2,0.1,0.5,0.3,0.7,0.5l3.3,3.8l-0.2,1.9c0,1.3,1.3,2,2.1,2.4c1.5-0.8,2.7-1.5,4.5-1.9c1,0.5,2,1,3,1.6v1.1c1.1,0.5,2.1,1.3,3,1.7
	l2-2.6v-1c-0.2-2.8-0.3-5,1-7.4l1-0.2c0.1-0.7,1.3-1,2-1.4l1-0.3c0.1-0.7,0.5-0.7,1-0.9l2-4.2v-2.4l-1-0.2v0.3l-1,1.3
	c-0.7,0.7-1.3,1.3-2,2v0.9l-2,2.1v0.1v-0.1l-1-0.9c0.4-1,1-1.3,1-2.2l2-2.4l8-6.2V93c4.1-0.5,8.4,0.7,12,0.1l7-2.8l4,0.6l3,0.4
	l1-3.4l2-3.8l1-0.4l1-0.9l1-1.1l4-2.2l1-0.7v-0.4l1-0.4v-0.7l1-0.6v-0.9l5-7.9l2-5.4l3-3.8l1,1.4c2.9,0.9,6.2,1,9,1.4l8-0.2l4-0.3
	l1-0.2h2l1,0.2v0.1l1,0.1v0.2c-0.8,0.8-2.2,1.3-3,2l-2,0.5l-5,0.3l-2,0.1l-2-0.1v-0.9c-0.7-0.6-1.1-0.8-2-0.7l-4,0.8l-3,1.9l-9,3.3
	l-1,0.8l-2,6.4l-1,1.9v2.6l3,1.5l1,0.4l1,0.1l1-0.2v-0.8l-2-0.2c-0.2-0.5-0.7-0.9-1-1.2v-0.9v-1l4-3.6l4-3.6l6-2.9l5,1l5,2.1
	c0.7,0.1,1.7-0.4,2-0.6l2-1.2v-0.2v-1.8l1-1.6v-0.1l1-1.2l1-0.2l3-1.4l3,0.2l4,6l-1,1.8v0.8l2,5.6l2,2.8l2-1l1-0.3l6,2.9v0.2l1,0.7
	l1,3.3v0.6l1,0.4v0.1v0.6h2l3,0.8v0.1l-2,1.5c-0.1,0.9,0.2,0.9,1,0.9v-0.6c0.9-0.1,1.3,0.2,2,0.8v0.1c0,0.7,0.6,1.2,1,1.7V94
	c0.5,0.7,0.8,1.4,1,2.2l1,0.2l1,0.3l1-0.2c-0.1-0.6-0.6-0.7-1-0.9v-0.7l-1-1.6c0-0.4,0.6-0.7,1-1v-0.1l9-2.9l4-1.1
	c1.7,2.3,3,3.8,5,5.5v1v4.2l3,6.7l4,4.1l1,1.1v2.2v0.1c-0.8-0.2-1.3,0.2-2,0.4v0.9l-2,2.1l-2,2.1c0,0.7,0.7,1.2,1,1.7
	c3.6,1.9,6.8,4.2,10,6.6c0,0,4.7,1.8,7,2.6c2.2,0.8,3.9,0.6,6,0.6c0.6-0.8,1.3-1.3,2-2v-0.8c1.4-0.2,2,0.3,3,1v1.2l1,5.7
	c1.1,3.4,2.1,6.8,3,10.2l-1,2.8v0.1v1l1,1.9l1,2.2v0.1l2,2.3v2.2l1,4.9l3,7.4v0.7v-0.1h-1l-5,2.1v2.7l-2,2.9l-1,0.2l-3,0.4l-5-0.2
	c-1.6,0-2.1,0.5-1.8-1.2c0.5-1.3,1.7-2.2,2.8-3.3c-0.1-0.8,0.4-1.1,1-1.7c1.2-1.4,2-2.4,3-4c0.9-2.6,1-4.9,1-7.5l-1-0.5
	c-6-0.7-5.6,1-11,1.1l-3-0.4c-1.8,0.4-3.7,1.1-5,0.2c-1.6-1.9-2.3-4-3-6.4l-5-5.8v0.1c-1.1,1.1-1,1.6-1,3.2c-0.2,1.7,0.7,1.8,2,2.6
	l-3,2.5l-3,0.2c-0.5,0.9-1.2,1.6-2,2.2l-7,6.3c-0.2,2-0.9,3.4-2,5v1.4l1,1.8v0.1c-2.6,2.8-4.8,6.8-8,8.3V183l-1-1.6l-1-1.1v-0.5
	v-0.1l-4-0.1l-1,0.5c-2.5,1.4-2,2.8-2,5.3l-1,0.9l-1-0.3v-0.2l-1-1.7c-0.8-0.3-0.8-0.7-1-1.2l-2,0.2v0.1c-4.2,1.8-6.8,5.7-10,9.1
	v0.2l-2-0.9v-0.1v-0.1V191c0.7-0.5,1.3-0.9,2-1.4V189c-0.1-0.3-0.7-0.2-1-0.3l-7,0.2l-2,0.6c-2.3,1.3-4.8,0.7-6-2.4l-4-3.2v-0.1
	l-8-0.7l-2,0.4v0.5c-0.5,0.5-2.1,0.5-3,0.6l-3-2.8v-1.4c-4.2-2.3-7.2-3.4-11-6.3c-3.3,0.4-6.8,2.1-10,1.2l-3,2.9
	c0.2,5.8-8.2,7-12,7.3l1,1.9c-1.2,1.4-4.3,1.5-6,1.9v0.1l-1-1.5c-4.9-2-6.3-0.2-10,3l1,4.1l-1,2.5c-1.6,2-3.7,1.3-5,0.7l-1-0.6
	l-3,0.4l-3,2.2l-5-0.3l-1-0.4v-0.4c-1.3-1.8-3.7-2.4-5.5-3.1l0.5-0.2l0.6-0.5c0.2-0.4,0.3-0.8,0.4-1.2l-0.1-0.3
	c-0.9-0.8-2.5-0.9-3.5-1.2l-2.9-2.1l-0.7-0.7l-1.1-1.5l-2.3-4.5l-2.5-5.5l-1.7-0.5l-2.6-0.7l-1.4,1.1l-0.4,0.8v0.1v0.2
	c-1.1,0.8-2,1.4-3.1,2c-1.9-0.6-3-1.1-4.4-2.4c-1.1-1.7-2.3-2.9-3.7-4.1c-0.2,0-0.3-0.1-0.5-0.2h-3.9c-0.6,0-1.1,0.1-1.7,0.3
	l-0.7,0.5l1.8-8.1l0.6-1.3l1-0.6c0.9,0.1,1.7,0.4,2.5,0.6l3.8-2.9c0.6-0.4,1-0.9,1.4-1.4c3.1-3.6,5.8-7.4,8.7-11.2l0.4-2.5l1.4-1.9
	l-0.7-3.8l-1.4-1.4l-0.9-0.5l-1.1-0.2H323l-0.2,0.2v0.1l-0.4,0.1h-1.3l-0.2-0.1l-1.5-0.9l-3.8-3.6l0.4-3.2l0.2-1.5l-0.1-0.5
	l-0.3-0.9l-0.2-0.4l-1-2.5v-1.8l1.4-2.3l5.2-3.6l2.6,0.1l1-2.1l-1-3.1L323.8,114z M464.9,36.4l-1,0.3l-1,1.4l-2,1.5V40
	c-1,2.6-2.2,5.1-3,7.7v0.9l1-0.2v-0.2l3-2.9V43v-1v-0.1l2-2.3l1-0.3c0.4,2.2-0.2,3.5-1,5.3l-1,0.6v2v1l3-1.3l2-1.2l7,2.8
	c1.4,0,2.7-0.5,4-1v5.2v2.8v0.1c-0.7,0-1.3,0-2,0.1c-3.1-0.6-5.3-1.9-8-3.5v-0.3v-0.3v-3.1l-3,0.1c-1.4,0-2.7,0.1-4,0.4l-3,0.9
	l-1,0.5V53l1,0.9l2-0.1l1,0.1l3,2.3l-1,1.6c-0.7,0.5-2.1,0.7-3,0.9c-0.7,0.1-1.3,0.3-2,0.5c-0.5,1.2-1,2.2-1,3.5l6,1.2
	c-0.1,0.4-0.7,0.7-1,1l-6,2.9v0.6l-1,2.4v1.1l2,5v0.2l15,5.2l2-1V79l-1-1h-1c-0.3,1.2-1.1,1.7-2,1.7v-1.6l4-4.4l3-3.2l1-0.8
	c3.7-0.5,7.3-0.9,11-1.4v0.1l1,2.3l1,0.1v0.5l-1,0.4c-0.5,0.6-1.4,0.9-2,1.2v1.5l3-0.6v-1.8l2-2.5c-1.3-2.2-2.3-3.8-4-5.6
	c-0.8-0.9-1-0.7-2-0.7v0.1l-2,0.1c-0.4-1.6-1.9-2.6-3-3.8v-4.4v-0.1l2-1.8l2-1.8l1-0.3v-0.4l1-1.2v-3.2c-0.9-0.3-0.8-0.4-1-1.1
	l-2-0.9v-0.1c-2.8-0.1-4.5,0.9-7,1.5c-1.3,0.3-2.6,0.5-4,0.5c-0.8-0.1-1.3-0.5-2-0.7c-0.6-0.8-1-0.9-1-2l-1-1.1v-1.5l-1-0.9v-0.3
	l1-1c0-0.7,0.4-0.7,1-0.8c0.8,0.1,0.7-0.4,1-0.6l1-0.5v-2l-1-0.3l-3,0.3C468.2,35.6,466.6,36.7,464.9,36.4z M452.9,58.9v-1l1-6.1
	l1-3.9l2-1.2l-3-1.1l-2,10.4v1v0.5V58C452.5,58.1,452.7,58.6,452.9,58.9z M456.9,60l5-2.3v-1.8l-2-0.6v-0.1l-1-0.1
	c0,0.4-0.7,0.5-1,0.6l-1,1.1c-0.1,1-0.6,1.9-1,2.8v0.8C456,60.7,456.6,60.2,456.9,60L456.9,60z M447.4,61l-0.1,0.9l0.6,0.1l3-1.1
	l1-0.6v-0.9l-3,1.1C448.2,60.8,448.2,61,447.4,61z M498.9,86.4c-0.7-0.1-1.3-0.3-2-0.3c-0.7,0.7-1,1-2,1.2V89l1,1.1
	c0.3,0.9,1.3,1.7,2,2.5c0.3,1.7,0.7,3.4,1,5.2l3,5.7v0.2l1,0.1l4-1.8v-1.1c-0.6-1.3-1.2-2.4-2-3.6v-0.1l4,0.3c1.1,1.7,3,2.9,4,4.5
	l1,0.4v6.3l-4-0.7v-1.5l-1-2c-1.2-0.7-2.8,0-4,0.3v3l2,1.5v0.8c0.5,0.9,0.9,1.8,1,2.8l-1,1.1v0.9c-0.4,0.6-1.5,1.1-2,1.5l-2,0.6
	c0,0-0.7,0.1-1,0.1l-1,1.5c1.5,1.2,3.3,1.7,5,1.5c3.6-0.7,6.5-2,10-3.5l7-0.8l1,0.1l1-6l-4-3.3c-3-2.9-6-5.8-9-8.6
	c-1.2-0.8-2.8-1.6-4-1.7c-1.4-0.1-2.1-0.6-3-1.6c-1.8-0.5-2.9-2.3-4-3.3C500.5,90.1,497.9,86.4,498.9,86.4L498.9,86.4z M358.9,111
	l1-2.2V107v-0.1c-0.7-0.1-1.3-0.3-2-0.4l-1,0.2v0.1c-0.5,0.7-2.1,1-3,1.4c-0.5,0.8-1.2,1.2-2,1.7l1,1.1v1.1v0.3l1,0.3v0.1l3,0.7
	L358.9,111z"/>
<text id="meck-text" transform="matrix(1 0 0 1 82.313 850)" class="st1 st2 st3">Mecklenburg-Vorpommern 23.213,70</text>
<path id="hess-karte" class="st0" d="M264.3,379.1c-0.4,1.4,0.2,2.9,0.5,4.1l1.4,3.5c1.1,1.8,2.8,2.1,4.7,2.8
	c2.2,0.6,2.2,1.7,2.8,3.7c2,1.1,4,2.2,6.2,2.8c0.5,0.3,1,0.6,1.4,1c0.7,1,1.4,1.3,2.5,1.6l0.3,0.6c-0.6,1.2-1.6,1.7-2,3.1v0.2
	l0.3,0.5c0.6,0.1,0.3,1.2,0.3,1.8v0.8l-0.2,0.2h-0.6l-0.4-0.7c-0.3-1.3-0.7-1.9-1.7-2.9c-1.2,0.2-2.1,0.5-3,1.2
	c1.7,3,2.1,5.2,2.3,8.7c1,0.3,1.9,0.7,2.7,1.3l0.1,0.2c2.7,2.5-1.1,5.3-3.9,4.5c-2.2-0.1-4.4-1.7-6.4-1.6l-0.3,0.2
	c-1.7,1.9-0.1,4.3,0.6,6.5c0.2,2.2,0.9,4.4,0.9,6.7c-1.2,2.3-1,5.2-3.7,5.2c-1.5-0.3-2,0.1-3.1,1.1l-0.2,0.3c-0.6,3.5,0.1,6.8-1,9.3
	c-1.6,3.2-3.6,4.9-3.7,8.5l0.1,0.8l3.3,0.7l1.1,0.2c1.7-0.6,0.6-2.5,0.1-3.7l2.3-0.8c5.2-1.3,7.3,4.1,4.3,5
	c-0.7,3.2-0.7,2.2-0.5,10.8c0.1,1.9-0.8,3.8-1.7,5.2c-7.5,7.8-10.5,7.3-12.5,6.1c-1.1-1.2-2.9,0-4.3,0.4c-0.2,1.3-0.6,2.5-0.9,3.8
	c-0.2,0.4-0.5,0.7-0.8,1c1.2,1.7,1.2,4,0.3,5.5l-0.7,0.8c-2.2,2-4.5,1.6-6,4.3l-0.9,2.4l-0.1,0.4c-2.2,0.4-4.8-0.3-6.6-0.9l-1.2,2.5
	l-0.4,3.5l0.7,4c0,0.9,0.3,1.5,0.7,2.3c0.1,0.7-0.2,1.3-0.4,2c-2.2,0.4-4.3,0.8-6.5,1c-0.3,0-0.5-0.2-0.7-0.4l-1.9-4.3l-0.1-0.1
	l-0.3-0.1l-9.7-1.9l-13.5,3.7l-0.1,0.1c-0.5,0.5-0.8,1.2-1.2,1.8c-0.1,1.4-0.5,2.6-1.2,3.8l1.3,1.1c0.7-0.3,1.4,0.2,1.9,0.5l0.1,0.2
	l0.4,3.9l-1.6,0.9l0.4,0.5c0.6,3.8,0.6,7.8,1,11.2c0.4,1.1,1.1,1.2-0.1,1.1H205c0,0.7,0.1,1.4,0.1,2.1l0.1,0.4l0.3,0.3l4.4,4.3h0.4
	l0.7,0.2l0.3,0.1l0.1,0.1l1.2,5.3l-1.6,4.2l-0.5,0.3l-1.4,3.7l-0.8,7l0.9,1.6l-0.2,1.6l0.1,0.2l-0.4,1l-0.1,0.2l-0.5,0.5l1.6,0.8
	l0.3,0.2l0.6,1.4v0.4l-0.3,0.4l-0.9,0.3l-1.5-1.8l-1.2-0.2l-5.6,1.8l-0.2,0.1l-1.1,0.7l-1.6,1.9l-0.4,0.7l-0.2,0.6l0.8,0.7l0.5,0.8
	l-6.4,6l-0.3,0.1l-0.1,0.1l-1.9-0.1l-0.5-0.1l-0.6-0.7l-0.3-0.8l0.4-0.9l1.8-3.7l2.3-0.8l2.3-2.1l-0.2-1.3l0.2-0.6h-2.4l-6.5-1.3
	l-0.5-0.2l-2.3-1l-1.4-1l-1.9-7.6l0.4-0.2v0.2l0.5,0.1l0.1-0.1l0.5-1L182,558l-1-0.2l-3.9,1l-1.7,0.5l-0.3,0.6v0.8l0.2,0.4l0.6-0.1
	l0.9,4.1v0.5l-0.1,0.5l-0.6,1.1l-1.8,1.4h-0.9l-0.3-0.1l-0.4-0.2l-1-0.6l-0.6-0.9l-0.4-1.2l-2-2.6l-1.5-1.3l-0.5-0.4l-1-0.2
	l-0.3,0.1h-0.3l-1.1,0.5l-0.1,0.1l-0.5-1.2l-1.6-2.4l-0.5-0.9l-1.6-5.1l-0.1-0.5l0.1-0.9l0.1-0.3l0.2-0.4l0.1-0.1l0.7-0.5l0.5-0.3
	l0.5-0.3l0.7-0.2l1.5-0.3l0.4-0.2l0.4-0.2l0.5-0.4l0.4-0.6l0.1-0.2l0.1-0.3l0.6-1l-0.3-2.4l-2.8-2.9l-0.5-1l-1-1.4l-0.3-0.5
	l-2.3-5.6l-0.1-0.7v-0.4l0.1-0.5l0.1-0.4l0.3-0.6l0.4-0.6v-0.3v-0.5l-0.1-0.6l-0.6-1.9v-0.9l-0.5-1.2l-0.5-0.8l-0.3-0.6l-0.7-0.8
	l-1.3-1.2l-0.8-1.2l-0.4-0.7l-0.7-0.7L153,516l-0.6-0.3l-1.8-0.4l-1.1-0.2l-0.9,0.1l-2.5,0.8l-4.2,1.9l-7,2.7l-0.3,0.1l-2,0.3
	l-3.3,0.1h-0.4l-0.2-0.1l-0.5-0.3l-5.4-7.6l-0.7-1.9l1-0.2l1.9-1.2l4.2-3.3l0.4,0.1l2.3,0.7l0.3-0.4l0.4-3l-0.1-0.4l-1-0.9l-0.8-0.6
	l-0.6-0.3l-0.3-0.5l-0.1-1.4l0.1-0.1l1.5-2l0.6-0.4l0.3-0.2l4.4-1.9l1.8,1.1l1,0.2h0.3l1.7-1.8l-0.1-0.2l-0.4-0.3l-1.6-1.6l-0.3-0.5
	l1-1.3l0.9-0.2h0.7l2.1,0.9l2-1.2l-0.1-1.9V488l-0.8-2.2v-0.2l-0.2-0.4l-2.7-4.8l-5.3-3.6h-0.5l0.3-0.7l1.8-5l-0.8-1l-0.5-1.3v-0.3
	l0.5-2.4l0.5-1.1l2.4-2.8l0.4-0.2l0.6-0.1h0.3l1.2,0.5l0.5,1l1,0.4l1.1,0.2l0.7-0.1l0.2-0.5l0.8-1.8l0.3-0.7l0.7-1.8l0.4-1.2v-0.5
	l-1.2-0.7l-0.4-0.2l-0.1-0.3l-0.9-4.8v-1l0.1-0.5l0.1-0.4l0.9-1l0.7-1l2-3.8l0.1-0.3l-0.2-1c-1.1-1.3-1.8-3-2.4-4.4l9.5-9.4l0.2-0.1
	l0.2-0.1l1,0.1h0.2l4.1,2.2h0.1l0.6-0.1l0.1-0.1l1.1-1.2l4.3-6.5l0.6-2.6l0.1-0.1l0.4-0.2l0.1-0.1h0.6l0.1,0.1l-0.3-0.4v-0.3
	c1.2-1.1,2.3-2.5,3.4-3.5l0.4-0.3l0.5-0.8c-0.4-0.8-0.7-1.5-1.1-2.3l-1-3.3l-0.1-0.3v-0.2l0.4-0.6c0.4-0.4,0.8-0.8,1.3-1.1
	c0.4-0.3,0.9-0.4,1.4-0.6l0.1-0.1c1.6,0,3.1,0.2,4.6,0.5l0.7,0.3l1.1,0.3l0.5-0.1l3.2-1.2l2.8-6.2l0.3-0.7v-0.4l-0.1-2l-0.8-6.4
	l-0.1-0.3c-0.5-0.9-0.7-1.1-1.7-1.1h-0.7c-1.9,0.9-3.8,1.6-5.6,2.7l-0.1,0.1l-0.7-0.1l-0.3-0.1l-0.3-0.2l-2-2.9l0.5-0.8
	c1.2-1.7,2.5-3.5,3.7-5.2c1.3-0.9,2.7-1.7,4.1-2.5c2.9-1,5.8-1.8,8.7-2.6c2.5-0.2,5.1,0,7.6,0.1h0.2c0.6-1.3,0.8-2.4,0.6-3.8v-0.2
	c-1.9-0.9-2.5-2.9-3.4-4.5c-0.4-0.8,0.1-1.3,0.5-1.8c2.6-1,5.1-2.3,7.8-2.3c3,0.8,4.3,2.6,3.4,4.9l0.6,1.7l0.2,0.2l0.2,0.2l0.6,0.2
	l2.8,0.2l0.6-0.1c2.3-4,6.7-6.4,10-9c1.9-3.7,4.5-6.8,7.1-10l1.3-2.1l3.3-0.8l0.3,0.1l0.1,0.2v0.4l-0.2,0.5l-0.2,0.9v0.3l0.3,0.4
	l0.8,0.4l0.7,0.1l3.1,0.1h1l3.4,1.7l0.1,0.1l1.4,1.6l0.7,0.6l0.8,0.5l0.2,0.2l0.2,0.4l-0.3,0.8l-0.1,0.2h-0.1l-0.7-0.2l-0.7,0.6
	l-0.6,0.8l-0.2,0.3l-1.5,0.3l-2.5,2.7l-0.1,0.3v0.1v0.2l2.1,3.5l0.5,0.6c0.5,2.6,1.8,5,0.3,7.3l-1.3-0.1l-1.6,0.3l-0.5,0.1l-1.1,1.7
	l-0.2,0.4c-1.7,4.9,3.9,5.5,7.6,7l3.4,1.7l0.1,0.2c1.5-0.6,2.2-0.9,2.6-2.4l0.1-0.5l-0.1-1.3V383h-0.6l-1.7,0.9l-1.7-2.8l1-1.5
	l4.4-3.7l0.5-0.3c2.2-0.3,4.5-0.7,6.4-0.9c0.7,0.5,1.1,1.5,1.6,2.2c0.4,0.6,0.3,1.2,0.4,1.8l-0.1,0.1L264.3,379.1z"/>
<text id="hess-text" transform="matrix(1 0 0 1 192.2578 850)" class="st1 st2 st3">Hessen 21.114,93</text>
<path id="ham-karte" class="st0" d="M252.6,155.3l0.4-2.4c0.4-1.5,1-3.2,1.4-4.5l0.2-0.3l0.4-0.1l-0.1,0.6c0.6,1.5,1.9,2.7,2.9,3.7
	l0.5,0.2l0.8-0.4c1.3-1.8,3.1-3.6,4.2-5.5c0-0.4,0.1-0.7,0.1-1.1c0.8-0.1,1.6-0.1,2.4,0c0.8,0.5,1.6,0.4,2.4,0.4l4.9-3.7l0.8-2
	l-0.5-0.6c1.8-1.2,3.8-2.1,5.7-3h0.3l0.2,0.1l1.3,0.7l-0.1,0.9l-0.6,1.4l0.1,4.7l0.8,0.9l1.6,2.1l-0.3,0.7v0.1l-1.3,2.7l-2,1.6
	c-0.7,0.5-0.8,1.1-1,1.9l0.1,2l0.8,2.5l0.3,0.2l3.4,2.4c1.1,0.2,0.6,0.3,0.8,0.7l0.2,0.7l3.7,4.1l0.6,1h-0.2l-0.2,0.1l-2.2,1.2
	l-0.3,0.2l-0.3,0.3l-0.2,0.2l-0.6,1.5l-0.2,0.3l-0.2,0.1l-0.4,0.1l-3.2-0.2l-0.4-0.1l-0.4-0.3l-2.6-2.4l-1.7-2
	c-0.7-1-1.8-1.6-2.7-2.1c-0.7,0.8-1.1,2-1.3,2.9l-2.8,2.1l-0.4,0.1c-1.7-1.5-3.1-2.7-4.5-4.3l-0.3-0.2c-1,0.7-1.5,1.5-2.4,2.2
	l-0.2,0.1c-1.1-1.4-3-2.4-3.5-4.1c-0.4-1.2-1-2.2-1.8-3.1l0.3-2.2v-2.8l-2.7-0.4L252.6,155.3z"/>
<text id="ham-text" transform="matrix(1 0 0 1 200.0156 850)" class="st1 st2 st3">Hamburg 755,30</text>
<path id="bre-karte" class="st0" d="M180.2,158l0.5-0.3l0.2-0.5l0.1-0.3l-0.1-0.7v-0.4l-0.1-0.3l-2.2-3.8l-0.9-1.3l1-1.2
	c2.1-0.2,4.2,0.1,6.3,0.2l1.7,0.3l0.1,0.1l-1.1,4.9l0.9,3.9c-0.4,1.3-1.7,2.3-2.6,3.3h-0.2l-1.9-0.1l-0.3-0.2l-0.1-0.3l0.3-0.5
	l0.1-0.2v-0.2l-1.4-1.8L180.2,158L180.2,158z M206,198.4l-1.3-1.5c-0.3-0.4-0.7-0.4-1-0.5l-1.2,0.7l-4.7-0.2l-3.8-1.8l-4.2-2.2
	l-6.5-0.8l-7.5-4l-0.3-0.8v-0.7v0.7l0.2,1.3c0.6,1.6,1.8,2.7,3,3.7l2.4,1.1c0.9,0.5,1.6,0.5,2.5,0.7l0.3,0.3l0.3,0.5l1.6,4.2
	l0.1,1.3l0.9,0.7l2,2.1l0.5,0.7l0.1,0.6v2.6l1,1h0.4l1-0.3c2.3-0.5,4.8,0.9,7.1,1.7l3.1,1.2l3.2-2.8l0.1-1.9l-0.4-4.8l-0.8-1.2
	l0.1-0.1l0.1-0.1l1-0.4l1-0.4L206,198.4z"/>
<text id="ber-text" transform="matrix(1 0 0 1 208.0149 850)" class="st1 st2 st3">Bremen 419,38</text>
<path id="bra-karte" class="st0" d="M539.8,170.7v2l1,3.2h1c0,0.5,0.6,0.8,1,1.1v0.5l-1,2.1l-3,3.7c-0.4,1.4-1,2.3-1,3.7
	c0.8,0.9,1.3,1.8,2,2.8v2.6l-1,0.5c0.5,2.6-1,4.2-1,6.4c-3,2.1-4.2,4.4-7,6.4c-2.3,0.9-3.6,1.7-5,3.6v2.7l1,3.9c0,2.7-1.3,4.1-2,6.1
	c0.9,1.3,1.4,1.3,3,1.5c4.6,1.9,10.7,4.7,13,8c3,1.9,3.7,4.8,6,7.1c1.3,0.8,2.8,1.7,4,2.3c3.6,1.2,5.3,3.4,8,6.1v9
	c-1.4,1.7-2.8,5-5,5.7c0,1.8,0.5,3-1,4l2,1.6c-0.4,3.2,0.9,5.9,2,8.9v0.2v0.2c0.8,0.8,0.8,1.5,2,1.5c1.7-0.1,3.4,0.7,5,1.2l1,0.3
	v0.2l1,1.4v0.2v7.1c-0.9,0.8-1.8,1.4-2,2.6c0.7,1.2,1,2.5,1,3.8l1,0.5c0.8,0.2,2.2,1.2,3,1.5l1,1.5v0.3l-1,3.3c0,1.5-1.2,2.4-2,3.3
	l1,0.1v0.6v6c-0.4,3-2.2,5-4,7.4c-0.9,1-2,1.8-3,2.7v0.4v3c4.3,1.8,4,7.4,7,9.9c1.3,1.1,2.5,2.3,4,3.1v1.4c1.2,3.3,1,5.5-1,8.3
	c-1-0.9-1-0.8-2,0v2.6l-1,0.2v0.6l-3,0.3h-1v-0.1l-1-0.2v-1.4l-2-0.9l-7,2.5l-1,0.2v1.3c-0.4-0.4-2.2,0.2-3,0.3l-5,2.4l-3-1l-4-0.5
	c-4.1-0.1-4.6-0.5-7,3l-1,4.5l-2,5.5l-2,3.5l-8,1.5v0.1c-2.6-0.3-3.8,0.4-6,1.5l-1,0.6c-4.1-1.1-5.2-0.7-9-0.6h-2
	c-3-0.6-5.4-2.4-8-3.9c-1.5-1.4-3.3-2.6-5-3.8V366c-2.6,1.3-7,2.5-7,5.9l-2,0.5v0.1h-3v-0.4v-0.7l-2-1.8c1.1-3.5,1-7,1-10.2l-1-2.8
	c-0.6-1.7-2-3.1-2-4.9l-3-1.4v0.3l-1,0.3c-0.2,0.7-0.1,0.5-1,0.2l-2-3.9l6-4.3c1.4-0.5,1.5-1.8,2-3.1v-0.1v-0.5v-0.9
	c-2.8-2.2-3.9-9.2-5-12.4v-0.3c1.4-1.1,2.2-2.6,0-2.7c0.1,1.2-1.1,1.4-2,1.7l-3-0.2v-0.2c-2.1-2.9-4.9-4.2-8-5.8c-3.4,1-6-1.3-9-3
	v-1.5c-2.6-0.1-5-2.3-7-3.2h-1v2c-4.8,2.8-9.2-0.1-14-2c-5.3-2.2-8.5-7.5-11-11.4l-3-3.8l2-4.1c-1-2.6-1-4.1,0-6.5v-0.5
	c-0.3-2,0.8-2.9,2-4.4v-0.1c0.2-0.8,0.7-1.7,1-2.5v-3.5c-1.3-2.8-1-6.7,1-8.6l-1-3.3c-1.6-0.1-5-3.3-5-0.9v0.1c-1.8,0.9-2.6,1.4-4,0
	l-2-2.2v-0.8l2-7.1c2.6-2.3,3-2.7,4-6.4c-0.8-1.7-2.2-3.5-3-5.3v-0.1c-0.1-2.2-0.4-3.9,1-5.6c-0.2-1.5,0.7-1.5,2-2
	c0.1-2.3-0.5-4.5-1-6.7v-0.2c-0.7-0.3-1.3-0.7-2-1.1c-1.5,0.5-2.7,0.9-4,1.7c-0.7-1.2-1-2-1-3.3v-0.2l-1,0.7l-8,1v-0.1
	c-3-1-6-2.1-9-3.1v-0.2V220c-1.6-0.5-0.8-1.7,0-2.2l1-0.4c-0.1-1.1-0.3-1.4-1-1.6l-5-3v-0.1v-0.2l-1-0.1v-0.1v0.1l-1,0.5l-1,0.6h-1
	v-0.1v-0.1l-4-2.8v-0.3v-0.3c-0.1-0.8,0.4-1.2,1-1.8v-0.2v-0.2v-0.2l-1-0.2v-0.1v-0.1h-1l-1,0.6h-1c-3.6-0.3-4.5-1.8-7-3.7v-0.3
	l-1-0.2c-1.1-0.1-2,0.3-3,0.6v0.1c-1.4,0.2-2,0.9-3,1.8h-1c-0.7-1.2-2-2.2-3-3.2l-1-1.4v-0.2v-0.3l-1-1.5l6,0.3
	c1.9-1.8,3.5-2.2,6-2.5c1.9,1.1,4.2,1.8,6,0.8v-0.9c1.4-2.4,0.6-4.1,0-6.7l3.5-3.2c0.2-0.9,2.6-0.8,3.5-0.8c2,0.2,2.9,1,4,2.5v-0.1
	l6-1.2c-0.3-0.8-0.4-1.9-1-2.6l3-0.2l5-1.8v-0.3c2.1-1.5,4.2-3,4-4.9l2-3c1.7,0.3,3.7,0.6,5,0l6-1.1v-0.1c3,3.3,7.8,4,11,6.3
	c-0.3,2.1,1.6,3,3,4.3c2.1,0.3,3.3-1.4,5-1.5c2.7,0.3,5.3,0.5,8,0.8c2,1.7,5.8,3.9,6,6.4c1.6,0.4,2.6-0.5,4-0.7v-0.1
	c0.4-0.3,1.4-0.4,2-0.6l7-0.2v0.2h1v0.5c0,0.4-0.6,0.6-1,0.8c-0.7,0.2-0.8,0.7-1,1.1v0.1v0.1l2,0.9v-0.2l7-7.6l1-0.4l2-1.1l2-0.3
	c0.9,1.6,1.2,3,2,3.2c1.5,0.6,2-1,2-1.9c-0.7-4.2,4.1-4.5,7-4.5v0.1v0.6c0.7,0.9,1.4,1.7,2,2.7v0.1l1-0.3c2-2.9,4.5-5.4,7-7.9v-0.1
	v-0.1l-1-1.8c0-2.1,1.4-4,2-5.7c0.7-3.4,7-4.6,7-7.7c1.6-1.5,2.9-1.5,5-1.6l3-2.4c-2.4-1.6-2-2.6-2-5.2l1-0.7v-0.1l5,5.8
	c0.7,2.6,2,5.8,4,7.1c1.3-0.3,2.7-0.5,4-0.8c2.3,0.5,4.6,0.4,7,0.3l1-1.4l6,0.4l1,0.4c-0.2,4.2-1.1,9.4-4,11.5l-1,1.1
	c0,1.1-1.2,1.8-2,2.5c-0.3,1.7-1,1-1,2.5l1,0.2l6,0.2c1.4-0.1,2.7-0.3,4-0.7c1.4-1.6,2-2.6,2-4.6v-1l5-2.1h1V170.7L539.8,170.7z
	 M480.8,244.9c-3.7,2.2-6.5,1.1-11,1.3l-1,2.2v0.1c0,0.5,0.6,0.6,1,0.9v0.3v0.2v0.5c-1,0-2-0.5-3-0.7v-0.3c-1.1-0.1-1.3,0.5-2,1.3
	v0.4l-1,6.1v0.7c4.4-1.3,2.1,3.4,0,4.7c-0.1,1.7,0.5,3.6,0,4.9c-0.9,0.4-1,0.4-1,1.3v0.2c1.3,1.2,2.3,1.3,4,1.4
	c1.1-0.1,1.1-0.1,0-0.2c0.1-1.3,1.9-1.5,3-2l1-0.6c1.9-0.1,4.9,0.5,6,1.9l2-1c1.6,1.9,2.6,2.9,5,3v-3.3v-0.1V268
	c0.6-0.6,1.2-0.9,2-1.1c1.4-0.5,1,0.5,1,1.7l4,1.2l7,2c1.9,0.4,3-0.4,3-1.7v-0.2v-0.2c1.3-1.8,2.2-3.7,3-5.7l-2-1.6
	c-1.9-0.4-3.4-1.9-5-2.2V257l-2-3.5l-4-3.7l-4-8.7c-0.9-0.6-1.1-0.4-2,0.1c-1.1,0.6-1,1-1,2.2c-0.4,0.4-0.7,1-1,1.4
	C481.5,244.2,480.8,243,480.8,244.9L480.8,244.9z"/>
<text id="bra-text" transform="matrix(1 0 0 1 160.3452 850)" class="st1 st2 st3">Brandenburg 29.654,34</text>
<path id="ber-karte" class="st0" d="M480.8,244c0.7,0.3,1.3,0.7,2,1.1v-0.2l1-1.2v-1.4c0.6-0.6,1.3-1,2-1.4l1,0.4l4,8.7l4,3.8l2,3.5
	v3.1l2,0.5c2,0.8,3.3,1.9,5,3.3c-0.8,2.3-1.7,3.8-3,5.7v1.9l-2,0.5l-1-0.3l-7-1.9l-4-1.3V267c-1.3,0.1-2,0.5-3,1.3v0.2v3.2l-2-0.1
	l-3-2.9l-2,1l-1-1.3l-3-0.8l-2,0.1v0.1l-1,0.6l-3,1.4v0.6l1,0.1c-1,0.2-2,0.1-3,0l-2-1.3V269v-0.8c0.9-0.2,0.7-0.5,1-1v-1.8v-2v-0.6
	c1.4-0.9,1.6-2.4,2.5-3.7l-0.5-1.3l-2,0.3v-0.6l1-6.2c0-0.7,0.6-1,1-1.5c1.1-0.2,1.9,0.5,3,0.7c1.7,0.8,0.4-1.3-0.1-2
	c0.3-0.8,0.8-1.2,1.1-2l6-0.2c1.9-0.2,3.1-0.6,5-1.2V244z"/>
<text id="ber-text_00000088113497496589898580000008197363810355669685_" transform="matrix(1 0 0 1 220.2976 850)" class="st1 st2 st3">Berlin 891,69</text>
<path id="bay-karte" class="st0" d="M394.8,475l1,0.2l1,0.6l2,2.7v0.4v1.6v1.9v0.1l1,0.2l5,1.4l2,0.7v0.7l2,1.4l1,2.7l-1,0.8l-1,0.3
	l-1,1.9l1,1.1l3,1.8l1,0.2l1,1.2l1,1.7l1,2.1v1l-1,0.7v4.5l1,0.6h1l1,0.8l2,1.7l-1,2l4,0.6l4,3.4l4,2.3c1.4-0.1,2.8,0.6,4,1v0.9
	l3,4.8v3.8c-1.7,1-2.2,3.1-3,4.8l-1,1.8v4l-4,3v0.5v1.4l1,0.7l1,2.7l1,0.2v0.1v0.1l5,1.3v0.1v1.6l1,5.4l3,5.9l1,1.4v0.7
	c0.6,0.4,1.3,0.7,2,1l1,0.1v0.2l1,1.4v2.1v0.7l-1,0.8l2,2.5l7,5.5v1.2v0.8l1,2.7c2.3,0.8,4.9,1.1,7,1.4l1-0.7l-1-0.5V583l2,0.1
	l3,0.4v0.1l5,5.4l6,7.8l4,3.5v0.1v3l1,0.9l1,0.8l1,0.5l2,0.7l1-0.5l3-0.2l2,1.8l5,4.6c-0.1,1.2,0.5,2.2,1,3.2l1,4.3l1,0.7l4,2.9v0.1
	l1-0.2v-0.9v-1.8l1-0.6l4,0.1c0.6,1.3,2,2.3,3,3.2c0.8,0.9,1.4,2,2,3.1v1.4l1,1.3c1.5,0.3,2.6,0.2,4-0.1c0.1-0.6,0.3-0.4,1-0.4
	l6,8.6l1,2.6l-1,2.2v2.2l-1,1.6l1,2.3l1,5.7v1.6l-1,4.5l-5,6.7l-1-0.4l-3-1.5l-1-0.2l-5-3.2l-5-2v1.6l-1,1.2l-1,0.9l-1,0.2l-2,0.7
	l1,0.9v0.1l1,2.7v0.2l-2,3.9v2l1,1.3v1.1l-1,5l-1,1l-5,5.3c-1.8,0.7-3.4,1.9-5,3l-5,0.3l-5,2l-1-0.1l-1,0.2l-4,2.1l-1,0.8v1.2
	l-3,3.2l-1,0.2c-1.7,0.1-3.3,0.4-5,0.7v0.2v1.2l-1,0.3l-1,2v1.1c-1.3,0.2-2.1,1.2-3,2l-2,2.1l-1,0.6v3.1l1,0.7v0.8
	c2,1.6,4,3.2,6,4.9l1,0.5v0.8l1,4.1l3,0.7c1,2,2.6,3.5,4,5.2l2,5.1l1,0.4v0.8l-3,4.6l-4,7.5v0.2v0.2l1,0.7l1,0.6l3,0.2l1-0.1l1-0.7
	v-0.9l1-0.1l2,1l4,7.3v1.5l-2,1.6l-2,2.8v5.2v0.6l1,0.1v3.5l-3,3v0.1v-0.1l-3-1.1l-11-7.2l-1-0.7l-1-1.2c-0.2-1.2,0.5-2.4,1-3.3l1-1
	l-3-5.6l-1-0.4l-4-1.1h-1c-1.6,0.4-3.3,0.7-5,1.1v0.1c-1.1,0.6-1.5,1.6-2,2.7l-5,2.4l-1,0.1l-2-2.5l-2-2.4v-0.3l-5-0.5l-2-0.7v-0.2
	v-0.4l-5,1.8c-0.4-1.4-0.8-2.8-1-4.2l1-1.1c0-0.7-0.4-0.7-1-1.1c-1.3,1.6-3.4,3-5,4.4v3.5l1,2.5l1,1c0.1,1.6,0.1,2.6-1,3.1l-4-0.1
	l-3-0.4c-3.6-0.9-8.1-0.5-12,0l-3,1.3l-2,2v0.1h-1l-3-0.6h-9l-2-0.2c-2.3,2.2-3,4.3-3,7.1l-1,1.1v0.1l-4,1l-4-0.3v-0.2l-1-0.6
	c-0.4,0.9-1.3,1.4-2,1.9c-0.1,1-1.3,1.6-2,2.3l-5,4.9l-1,1c0.1,1.4,0.2,1.7-1,2.3v0.1c-1.3,0.1-2.7,0.2-4,0.1c0-1,0.6-1.8,1-2.5
	c0.7-0.2,0.8-0.7,1-1.1V783l-3-0.2l-3,1.3c-0.9,0-1.3,0.5-2,1l-3.5,1.7l-5.3,0.3c-1,0-1.6-0.3-2.5-0.6c-0.1-0.6-0.1-1.1,0-1.7
	c1-0.5,0.8-0.7,0.9-1.4l-1.6-1.9l-2.3-2.3l-3.3-0.7c-1.1-0.3-0.9-1.3-0.8-2.1c0.8-0.6,1.6-1.3,2.4-1.9l-1.3-2l-2.2,0.3l-3.9,1.5
	l-2.4-0.5c-2-1-5-0.9-5.1-3.3c-2.1-0.4-4.2-0.8-6.3-1l-1.3,1.9l-0.6,1.6l-0.3,0.1l-3.1-0.2c-1.6-0.7-3.5-1.1-4.9-2.1
	c0.8-1,1.3-2,1.3-3.2c-1.2,0.2-2.4,0-3,1.1l0.1,7.5l0.7,1.8l0.1,0.2c0.2,0,0.4-0.1,0.6-0.1l1.2,0.8c0.2,1.6,0.3,3.1,0.4,4.7
	l-10.4,13l-2.9,1.8l-2.8,1.1l-4.4,0.8l-0.3-0.1l-0.1-0.3l-0.1-0.6l0.3-0.9l0.2-0.7l2.6-6.1l0.7-0.8l0.7-1.1v-0.1v-0.8l-0.5-0.7h-0.2
	l-3.1-0.4l-0.9,1.8l-0.2,0.6l-4.6,1.5l-1.6-5.1c0.5-1,1.4-1.6,2-2.5l-1.8-2.7l-4-3l-1.4,0.2h-0.1l-2.5-4c-0.1-0.9,0-1.7,0.2-2.6
	c-2,0.8-4.3,1.2-6.5,1.8l-4.1-1.9l-0.1-0.2c0.8-1.2,0.7-2.6,0.7-3.8c-1.1-0.9-2.1-1-3.3-0.9l-1.4,1.6l-2.5,3.4l-3.8-1.2l-3.2-1.3
	l-0.9-0.6l-0.3-0.8l2.6-2.1l1.3-0.8c1.6-0.2,2.2,0.4,3.1,1.1l3.2-0.1l5.5-5.6v-0.2l4.8-0.2l5.5-0.1c0.4-0.8,1.1-1.5,1.6-2.1l0.1-0.1
	c1.4-0.4,2.6,0,4,0.3c0.7,1.4,0.9,3,1.2,4.3v-0.3l0.4-1.2c0.6-0.8,1.3-1.1,2.1-1.2h0.2l1.1-1c0.4-1,0.6-1.9,0.7-2.9l-2.5-6.2
	l-0.1-3.8l1-0.1l1.3-1.1l-0.2-0.8c-0.9-0.5-1.1-1.2-1.5-2.1c-0.5-2-0.6-4-0.7-6v-0.4l0.1-0.2l0.2-1.8l0.3-1.4
	c-0.5-0.3-0.9-0.7-1.3-1.1c-0.7-0.9-0.4-1.7,0.1-2.5l0.2-0.1l0.7-0.2l0.7-0.2l0.1-1.1c0.7-3.1,1.6-6.2,1.5-9.1l-0.1-3.4l-0.9-0.7
	l-0.8-0.9l-0.1-0.1c-0.3-1.2-0.7-2.3-1.1-3.5v-0.5l-0.3-0.7l-0.3-1.7l-0.2-0.8l-1.2-8.8c-2.4-3.1-4.5-5.4-5-9l1.5-3.5
	c0.8-1.4,1.4-2.9,1.6-4.2c0-0.6-0.2-0.8-0.5-1.2l1.6-0.1l3.3-1.9c1.7,1.5,2.7,2,4.4,1.6l4.8-4.2c-0.6-1.2,0.4-1.4,1.1-1.8l0.2-0.1
	c0.5-0.2,1,0,1.5,0.2c0.9,0.1,1.7-0.4,2.3-0.7v-3.9v-0.6l-1-5.8l-1.3-1.7l-1.2-1.6l-0.5-0.8v-1.4l0.1-0.2l0.8-2.4l4.1,1.3l0.6,0.2
	l4.8-1.1l1.6-0.1l0.3,0.2l0.2,0.3v0.2l-1,2.1l-0.4,0.4l-0.1,0.1v0.3h1.1l2.2-0.7l1.4-1.7l0.4-0.4l-0.3-0.6h-0.3l-0.6-0.6l-0.7-2.6
	v-0.8l-2.6-0.9h-0.2l-0.2-3.2l0.6-0.3l1.3-3.2l0.3-5.2l0.2-6.1l-0.4-1.9l-0.5-0.6c-1.1-1-1.7-2.4-2.1-3.5c-1.9-1.8-4.2-3.2-6.3-4.8
	l-4.2-1.7l-0.1-1.1c0.8-2.6-0.2-5-0.8-7.5l-2-3.8l-5.8-3.3l-0.3-0.3l-0.1-0.2l0.2-6.2l1-2.7c-0.9-1.7-1.7-3.5-2.5-5.2l-0.1-0.3v-0.3
	l0.3-3.6l0.3-0.6l2.3-0.1l0.9-0.7l-1.7-4.2l-1.2-3.9c-0.4-0.4-0.7-0.9-1.1-1.4l-0.1-0.6l0.7-1.1c-0.1-1.1-0.6-2.1-1.1-3.1l-2.1-1.2
	l-1.6,1.4v0.1l0.2,0.3l1.3,0.8l-0.5,0.9l-0.2,0.2l-2.2,2.4l-0.3,0.1c-2.1,0.3-3.8,0.4-5.8-0.2l-0.2-1.9c0.3-1.5,0.2-3.1,0.3-4.7
	l-0.1-1.1l-1.6-2.6h-0.3l-2-3.7l-2.3-8.3l-0.7-0.7l-1.7-1.7l-1.1,0.3l-4.2,1.5l-2.7,1.5l-0.9,0.4c-0.8,0.2-1.3-0.3-2-0.7l-0.5-0.7
	l0.4-1.4l0.7-0.4l0.7-6.2l-0.2-1l-1.2,0.5l-4.3,4.2l-0.1,0.1l-3.3-2.1l-0.3-0.4v-0.2l0.2-1l-0.4-0.7l-0.4-0.2l-1.3,0.1l-0.6,0.7
	l-0.7,1h-9l-0.5,0.1l-0.4,0.9l0.5,1.9l1.5,2.5l0.9,1.4h1.4l0.3-1.7l-0.1-0.6l0.3-0.5l0.9,0.2c1.8,2.1,1.2,4.6,0.7,6.8l-0.3,1.8
	l-1.5,0.3l-2.3-0.7l-3-0.5l-1.3,1.8l-0.7,1.2l0.6,0.8l0.1,0.2l-2.4,3.1l-0.6,0.3l-1.2,0.4c-2.3,0.5-4.8,0.3-6.8,0.3h-0.2l-1-0.4
	l-0.9-1.6l0.8-7l1.4-3.7l0.5-0.3l1.6-4.3l-1.2-5.3l-0.2-0.1l-0.2-0.1l-0.8-0.1l-0.4-0.1l-4.3-4.3l-0.3-0.3l-0.1-0.4l-0.1-1.4v-0.7
	h0.2l0.9,0.1l-0.7-1l-0.1-0.2l-0.4-3l-0.1-2.1l-0.1-2.9c-0.2-1.3-0.2-2.6-0.8-3.7l1.6-0.9c-0.1-1.4-0.4-2.7-0.7-4
	c-0.6-0.5-1-0.3-1.7-0.3l-1.3-1.4l0.7-1.3l0.4-2.5l0.8-1.2l0.5-0.6l0.1-0.1l13.5-3.7l9.7,1.9c1.1,1.1,1.7,3.2,2.3,4.5
	c0.6,0.7,1.3,0.4,2,0.3l5.1-0.9l0.4-1.2l-0.6-3.1l-0.7-4l0.4-3.4l1.1-2.6l6.5,1.1l0.2-0.1l1-2.8c0.6-1.9,1.9-2.3,3.5-2.6l0.1-0.1
	c3-1.3,4.4-5.3,2.7-8c1.1-0.7,1.2-2.1,1.4-3.1l0.4-1.6l3.5-1l0.8,0.6c4.8,2.4,9.5-3,12.5-6.2l1.7-4.3l-0.1-0.8
	c0.3-0.1,0.5-0.2,0.7-0.3l2.8-2.9l6.6-0.8c1.7,0.8,2.9,3.2,3.9,4.5l4.6,1.9c2.4,2.5,3.4,5.3,3.9,8.6l0.6,1.3h0.1
	c1.3,0,2.5-0.1,3.7-0.6c0.2,2.1,1.5,3.2,2.8,4.7l7.1,2.2l-0.1,6.5l0.6,3.9c2.6,1.2,5.2,2.1,7.5,2.8l0.2-0.1c0.8-1.3,0.2-3.1,0.1-4.3
	l0.1-0.2c2-0.2,4.1,0.6,6.1,1.1h0.3c0.5-0.1,0.9-0.3,1.4-0.6l0.3-2.2c-1.2,0-2.2-0.5-3.3-0.9l-5.3-4.4l-0.6-3.8c0.9-2.4,5.4-3,7.7-4
	h6.6c1.5,0.9,2.4,2.9,3.4,4.1l3.6,0.6c2.4-0.4,2.8-2.2,5.1-2.3c1.4,0.9,2.1,2.3,3,3.7c0.6,1.4-1.5,1.9-1.8,3v0.1
	c0.8,1.2,1.9,2.2,2.9,3.2l0.6-0.1v-0.1l1-1.9l3-0.5l2-6.9l-1-7.6c-0.8-1.3-1-1.5-1-3.6v-0.8v-0.3v-0.1l1,0.1c1.1-0.3,2.8-1.6,4-2.3
	c-0.1-0.9,0.5-1.3,1-1.9v-0.1l2-0.2c3.6,0.2,4.8,1.6,4.2,3.7l-0.8,1.5c-0.2,1.5-0.5,3.1,1.6,4.2l2-0.2c-0.3,2.6,1.2,3.5,3,5.2v0.3
	c1.5-0.6,3-0.3,3-2v-0.2c1.5-0.3,2.5,0,3,1l1,0.2l12-1.7l4-1.5L394.8,475z"/>
<text id="bay-text" transform="matrix(1 0 0 1 197.0571 850)" class="st1 st2 st3">Bayern 70.550,11</text>
<path id="bad-karte" class="st0" d="M209.2,563l1,0.4l0.2,0.1h4.9l1.3-0.3l0.6-0.1l1.2-0.4l0.6-0.2l2.4-3.1l-0.1-0.3l-0.5-0.7
	l0.7-1.2l1.2-1.8l3,0.5l2.4,0.7c1.9-0.6,1.8-3.2,2.5-5.4l-0.4-1.7l-1-1.8l-0.9-0.2l-0.4,0.6l0.2,0.5l-0.1,1.6
	c-0.3,0.1-0.7,0.2-1,0.2c-0.8-0.1-1-0.7-1.5-1.4c-0.6-1.2-3.5-5.1-1.2-5.4l2.3-0.3l5.5-0.2l1.3,0.5l0.6-1.1l0.4-0.5l0.2-0.2l1.3-0.1
	l0.2,0.1c0.8,0.4,0.5,1.2,0.5,2l0.2,0.4l0.3,0.3l2.6,1.7l0.2,0.1h0.3l0.1-0.1c1.8-1.6,3.3-3.6,5.5-4.7l0.1,1l-0.6,6
	c-0.1,0.3-0.4,0.3-0.6,0.5c-0.3,0.4-0.4,1-0.5,1.5l0.5,0.7l1.4,0.8c1.5-0.2,2.7-1.2,4.1-2l4.2-1.4l1.1-0.4l2.4,2.4l2.4,8.4
	c0.2,1.4,1.2,2.5,1.9,3.6h0.3c1.4-0.2,1.2,1.3,1.6,2.5v0.1l0.2,1.1l-0.2,4.2v0.1l-0.2,0.4l-0.4,0.5l-0.1,0.6l0.8,0.9l0.2,0.1
	l1.5,0.3l4-0.2l0.4-0.2l2.1-2.4l0.2-0.2l0.6-0.9c-0.6-0.1-0.9-0.4-1.3-0.8l-0.3-0.3l0.1-0.1c1-1.2,1.7-1.6,3-1.3
	c0.9,1.5,1.4,2.6,1.7,4.2c-0.4,0.2-0.4,0.6-0.6,0.9v0.8l1,1.3l0.2,0.1l1.2,3.9l1.1,2.3l0.6,1.7c0.1,0.3-0.2,0.5-0.3,0.7l-0.7,0.3
	h-2.3l-0.3,0.7l-0.3,3.5c0.8,1.9,1.6,4.2,2.6,5.7l-0.9,2.8l-0.2,6.2v0.2l0.3,0.4c1.3,0.9,2.7,1.7,4.1,2.5l1.7,0.7l2.1,3.8l1.3,6.6
	l-0.4,0.3c-0.4-0.1-0.1,0.4-0.2,0.6l0.2,1.1l4.2,1.8l6.1,4.4l0.1,0.4l0.7,1.8l1.3,1.4l0.1,0.1l0.5,0.7l0.4,1.8l-0.1,6.2l-0.4,5.2
	c-0.7,1.3-0.6,2.9-1.9,3.5l0.3,3.3l0.2-0.2l2.5,0.9l0.1,0.8l0.6,2.6l0.7,0.6c0.6,0.3,0.3,0.7,0.2,1.1l-1.5,1.7l-2.2,0.7h-1l-0.1-0.2
	c0.8-0.8,1.2-1.8,1.6-2.8l-0.1-0.2l-0.1-0.3c-0.6-0.4-1.3-0.2-2-0.2l-4.8,1.1c-1.5-0.5-3.1-1-4.6-1.5l-0.9,2.4v0.3l-0.1,1.3l0.6,0.8
	l1.2,1.7l1.3,1.8l0.9,5.7l0.1,0.6l-0.1,3.9l-1.1,0.6l-0.6,0.1h-0.6l-0.9-0.4l-0.5,0.1l-0.3,0.1l-1.5,0.8l0.2,0.5l0.2,0.6l-4.7,4.1
	l-2.3,0.5l-1.2-1.3l-0.9-0.7l-3.3,1.9l-1.6,0.1l0.3,0.5l0.2,0.7l-0.3,1.7l-1.3,2.3l-0.1,0.2l-1.5,3.5l0.4,2l0.8,1.6l2.9,4.4l0.9,1
	l1.7,11.3l1.5,4.7l1.7,1.7c0.2,2.1,0.4,4.6,0.5,6.8l-1.6,4l-0.3,2.8l-1.7,0.6c-0.6,0.8-0.3,1.5-0.1,2.4l1.4,1l-0.4,1.4
	c-0.1,0.9-0.2,1.8-0.2,2.6l0.2,3.4c0.3,1.7,0.3,3.1,1.5,4.3l0.4,0.3l0.3,0.8l-1.3,1.2h-1v3.7l2.6,6.2l-0.1,0.6l-0.6,2.3l-1.1,1
	c-1.8,0.2-2.1,1-2.7,2.4c0.3,0.6-0.7-2.7-0.8-3.2c0-0.3-0.2-0.5-0.3-0.7l-2.6-0.5c-1.7,0-2.2,1-3.1,2.3l-5.5,0.1l-4.8,0.3v0.1
	l-5.6,5.6l-3.1,0.2l-0.4-0.2c-0.3-0.2-0.3-0.5-0.4-0.8l-2.4-0.2c-1.3,1-2.6,1.9-3.9,2.9h-2l-0.9-0.1l-0.3-0.1l-0.3-0.2l-3.4-6
	l-6.5-2.3l-0.6-0.1l-1.8,0.3l-0.7,0.3l-1.2,0.1l-0.9-0.5l-2-1.1l-2.7-1.8c-1.2-1.2-2.2-2.2-2.6-3.9v-0.7c-3.5-2.6-7.3-5-10.4-7
	l-0.3-0.1l-0.3-0.6l-0.3-0.2l-1.5-0.3l-0.7,1.1v0.1l0.2,0.3l2.5,2.5l1.3,1.1l3.2,2.3h0.2l0.5-0.2l0.3,0.2l1.7,1.3
	c1.1,2.3,2.4,4.5,3,7c-0.9,0.8-1.9,1.1-3,1.3c-3.1-1.4-5.8-2.8-8.6-3.4l-1.8-0.2c-2.4,0.7-3.9,2-5.9,3l-3,0.8h-0.2l-1.2-0.7l-4.6-4
	l-1,1.8h-0.3l-0.6-0.2l-3.8-1.7c-0.5-1.2-0.7-2.5-1.1-3.8c0.1-0.7,0.5-1.1,0.9-1.6l-1.1-1.9l-1.7-1.4l-2.3-0.7l0.3,1.1l-0.4,0.6
	l-0.2,0.3l-1,0.6l-0.2-0.1l-0.6-0.9l-0.3-3.4l-2.8-0.6l-0.8,1.1l-0.4,1.2l-3.2,0.7l-1.5,0.3l-1.1,0.9l-1.1,1.5l-3.3,5.6l-0.5,2v0.1
	l0.5,0.8l3.9,2.8l0.2,0.1l4-1.6l-0.2-0.6l0.4-0.2c1.5-0.8,2.9-0.8,4.6-0.9c1,0.2,1.5,1.3,2,2c0.1,0.5-0.2,0.9-0.4,1.3l-1.4,3.1
	c-0.5,0.5-1,1-1.5,1.4c-0.8,0-0.9-0.2-1.3-0.7l0.2-0.7c0.5-0.8-1-1.8-1.8-2.2c-0.4,0-0.8-0.2-1.2-0.3l-3.8,3
	c0.6,0.7,1.3,1.4,1.8,2.2v0.1c-0.6,0.5-1.4,0.7-2.1,0.9l-1.8,0.5c-2.4-0.1-4.8-0.3-7.2-0.5l-0.4-0.1c-2.7-2.7-5.7-4.8-8.5-5.3
	c-0.2,0-0.3,0.1-0.5,0.2l-6.2,3.6c-0.8,0.7-0.6,1.6-1.3,2.4l-0.3,0.1l-4.6,0.6h-0.1l-4.2-0.9l-3.4-1.4l-1-1.5
	c-0.1-0.3-0.4-0.2-0.6-0.3l-0.2-0.1l-3.5,0.1c-1.2,1.3-2.1,2.3-3.2,3.2c-2.1,0.9-4.3,1.5-6.5,2.1h-0.3c-0.6,0-1.1-0.2-1.6-0.4
	l-0.1-0.1l-1.3-1.3l-0.7-1.1c0.3-0.4,0.5,0,0.8,0l2.5-1c0-0.8-0.3-1.6-0.6-2.2l-5.7-1.6l-4.3-5.7l-0.2-0.3l-0.2-0.4l-0.1-0.4
	l-0.4-2.8l0.1-0.4l0.1-0.2c3.2-2,2.5-3.7,1.4-7c-0.2-0.4,0-0.8,0-1.2c0.2-0.9,0.7-1.7,1-2.6l1.3-2.8l0.2-0.7
	c0.1-1.1-0.5-2.1-0.5-3.2l0.2-0.5l1.8-4.7l1.9-2.6c1.1-1.6,1.4-2.8,0.5-4.6c-0.7-1.2-1.7-2.4-2.6-3.5l-0.2-0.2v-0.3
	c0-1.6,0.1-3.1,0.1-4.7c0.3-1.2,0.5-2.4,0.7-3.6c-0.1-0.3,0.1-0.5,0.1-0.7l1.6-3.4l0.2-0.3c1.5-2.1,3-4.1,4.5-6.1l0.2-0.4l0.3-1.1
	l0.7-2.3l0.7-3.7l0.1-0.3l0.2-0.5l0.4-0.5l0.5-0.3l1.6-0.7l0.5-0.3l0.2-0.2l0.2-0.2l0.2-0.3V689l0.1-0.3l-0.8-3.9l-0.1-0.9
	c-0.1-0.9,0.2-1.8,0.5-2.6l2.1-5.3c1-2.2,2.6-4.5,3-6.7l0.1-3.6c-0.2-1-0.2-1.8-0.3-2.8c0.9-1.9,1.9-3.7,2.8-5.6l0.2-0.3l0.2-0.2
	l1.2-0.5c0.7-0.3,1.4-0.7,2-1.2l4.8-5.5l0.7-3.6l0.2-0.4l0.1-0.1l0.5-0.2h0.4l2.5-0.7l3.5-2.4l0.7-0.7c2.2-3.1,2.7-7,4.6-10.4
	l3.3-5.3c0.6-0.8,1.8-0.9,2.6-1.2c0.7-0.4,1.4-0.9,2-1.4c2.3-1.5,2.2-8.2,6.3-11l0.4-0.7l0.2-0.5l2.4-10.3c0-1.6-0.6-1.5-0.2-3.1
	c1.6-2,4-3.5,5.4-5.1l1.4-0.7l0.1-0.2c-0.4-2.5-3.3-2.7-1.6-4.7c2.9-1.7,2.7-4.5,2.4-7.5l0.8-2.1V577l-0.1-0.3l-0.3-0.4
	c-0.8-0.5-1.7-0.2-2.6-0.2c-1.2-0.2-1.7-0.8-1-1.8l0.2-0.1l-0.4-3.2l-0.1-0.7l-1.1-4.4c-1.1-1.6,0-2.7,0-4.3l0.2-0.1l1-0.5h0.4
	c2.4,0,3.9,2.7,5.3,4.4l0.4,1.2l0.6,0.9c1.8,1.4,2.6,0.9,4.3-0.5l0.7-1.1l0.1-0.5v-0.5l-0.9-4.1l-0.6,0.1l-0.2-0.4l-0.1-0.8l0.3-0.6
	l1.7-0.5l4-1l0.9,0.3l0.2,0.4l-0.6,1l-0.1,0.1l-0.4-0.1l-0.1-0.2l-0.4,0.2l1.9,7.6l1.5,1l2.3,1l0.4,0.2l6.5,1.3h2.4
	c-0.2,0.6,0,1.3,0.1,1.9l-2.4,2.1l-2.3,0.8l-1.7,3.7c-0.5,1.2-0.3,1.5,0.5,2.4c0.8,0.2,1.5,0.2,2.3,0.2l0.2-0.1l0.2-0.1l6.5-6
	c-0.9-0.8-0.9-1.2-1.1-2.1c0.5-1,1.3-1.8,2-2.6c2.1-1.4,4.8-1.9,6.9-2.6l1.1,0.2l1.5,1.8l0.9-0.3l0.3-0.4v-0.4l-0.5-1.4l-0.4-0.3
	l-1.6-0.8l0.5-0.5l0.2-0.2l0.4-1l-0.1-0.1L209.2,563z M180.1,755.7l-0.8-1.9l-0.2-0.2l-2.6,0.2l0.3,2.2l0.6,0.5l2.1-0.2l0.7-0.1
	L180.1,755.7z"/>
<text id="bad-text" transform="matrix(1 0 0 1 118.4634 850)" class="st1 st2 st3">Baden-Württemberg 35.751,34</text>
</svg>
